<?xml version="1.0" standalone="no"?>
<!DOCTYPE svg PUBLIC "-//W3C//DTD SVG 20010904//EN"
 "http://www.w3.org/TR/2001/REC-SVG-20010904/DTD/svg10.dtd">
<svg version="1.0" xmlns="http://www.w3.org/2000/svg"
 width="870.000000pt" height="860.000000pt" viewBox="0 0 870.000000 860.000000"
 preserveAspectRatio="xMidYMid meet">

<g transform="translate(0.000000,860.000000) scale(0.100000,-0.100000)"
fill="#000000" stroke="none">
<path d="M3675 8543 c-4 -32 -6 -76 -6 -97 2 -41 -15 -96 -29 -96 -4 0 -11
-12 -14 -26 -5 -17 -12 -24 -21 -20 -8 3 -26 -6 -39 -19 -14 -14 -32 -25 -40
-25 -8 0 -16 -4 -18 -10 -1 -5 -22 -11 -46 -12 -24 -1 -45 -5 -48 -9 -2 -4
-13 -6 -24 -4 -11 2 -22 0 -25 -6 -8 -13 -82 -12 -87 2 -2 7 -18 7 -53 -1 -28
-6 -90 -11 -140 -10 -49 1 -128 0 -174 -4 -47 -3 -113 -6 -148 -7 -35 -1 -63
-5 -63 -8 0 -3 -48 -6 -106 -6 -63 -1 -108 -5 -112 -12 -4 -5 -36 -15 -71 -21
-36 -7 -67 -16 -71 -22 -3 -6 -40 -19 -81 -30 -83 -23 -131 -41 -204 -75 -27
-13 -81 -36 -120 -50 -84 -32 -137 -63 -129 -76 3 -5 -1 -9 -9 -9 -17 0 -43
-28 -34 -36 3 -3 58 27 124 66 65 39 129 73 143 77 14 3 53 18 87 34 67 31
165 59 281 80 39 7 72 17 72 21 0 4 20 8 44 8 25 0 47 4 50 9 3 5 38 9 78 10
40 1 75 5 78 10 3 5 147 12 320 15 173 4 333 8 355 11 22 2 68 7 103 10 57 6
65 10 90 43 15 20 32 40 38 44 22 15 66 89 69 115 1 16 6 65 10 111 6 69 5 82
-8 82 -10 0 -16 -17 -22 -57z m-1105 -373 c0 -5 -4 -10 -10 -10 -5 0 -10 5
-10 10 0 6 5 10 10 10 6 0 10 -4 10 -10z"/>
<path d="M3978 8593 c12 -2 30 -2 40 0 9 3 -1 5 -23 4 -22 0 -30 -2 -17 -4z"/>
<path d="M5020 8596 c0 -1 9 -9 19 -18 15 -13 21 -14 25 -3 3 8 -5 15 -20 18
-13 2 -24 4 -24 3z"/>
<path d="M5046 8542 c-6 -10 -24 -153 -26 -204 0 -5 5 -7 12 -5 6 1 13 -7 15
-18 4 -17 2 -18 -7 -5 -10 12 -11 11 -4 -5 4 -11 9 -35 12 -52 2 -18 8 -30 13
-27 6 3 19 -6 30 -20 11 -14 27 -26 35 -26 8 0 14 -4 14 -9 0 -5 9 -13 20 -16
11 -3 27 -13 36 -22 26 -26 387 -72 400 -51 3 4 10 5 16 2 6 -4 88 -8 182 -9
205 -3 439 -20 557 -41 110 -20 147 -25 186 -24 18 0 53 -7 78 -15 25 -9 51
-13 57 -9 6 4 8 3 5 -3 -4 -6 8 -20 26 -31 19 -11 47 -27 63 -37 l29 -18 -30
27 -30 27 30 -6 c27 -5 71 -29 150 -81 19 -12 26 -14 20 -5 -6 11 -4 13 9 8
10 -4 20 -7 22 -7 3 0 3 -3 1 -7 -3 -5 2 -15 11 -23 14 -13 15 -12 9 3 -8 21
15 23 35 3 8 -7 32 -23 54 -34 21 -11 53 -33 69 -49 17 -16 50 -43 75 -60 25
-17 63 -52 85 -78 22 -26 49 -56 60 -67 11 -10 20 -24 20 -29 0 -5 5 -13 11
-17 6 -4 23 -29 39 -57 15 -27 38 -66 50 -85 12 -19 28 -61 34 -93 7 -32 15
-57 17 -54 2 2 -2 32 -10 66 -8 33 -11 59 -6 56 4 -3 11 -17 14 -32 16 -71 41
-143 48 -143 4 0 8 -5 8 -11 0 -5 -5 -7 -12 -3 -7 4 -8 3 -4 -5 4 -6 11 -9 14
-7 4 2 22 -57 41 -132 34 -141 67 -267 100 -382 11 -36 26 -92 34 -125 9 -33
23 -87 32 -120 29 -106 55 -244 55 -289 1 -59 83 -276 184 -484 20 -40 36 -76
36 -81 0 -5 9 -20 21 -34 11 -15 27 -48 35 -74 16 -48 22 -65 42 -113 18 -43
30 -82 56 -170 13 -47 43 -144 65 -217 22 -72 45 -162 51 -200 5 -37 17 -93
25 -123 8 -30 17 -80 21 -110 4 -30 10 -65 15 -77 5 -13 6 -38 4 -55 -4 -28
-3 -29 3 -8 8 22 10 19 21 -30 51 -223 74 -399 51 -385 -7 4 -10 16 -7 26 3
11 1 19 -4 19 -5 0 -9 -17 -9 -39 0 -31 4 -38 18 -37 14 1 17 -9 20 -59 2 -47
0 -56 -9 -42 -6 11 -8 34 -5 53 6 28 4 34 -10 34 -12 0 -14 -5 -9 -17 13 -29
15 -373 3 -428 -6 -27 -11 -66 -12 -85 -1 -23 -6 -35 -16 -36 -16 -1 -30 -6
-101 -35 -25 -10 -67 -23 -94 -29 -27 -6 -55 -20 -66 -33 -10 -12 -18 -19 -19
-14 0 4 -12 1 -27 -6 -16 -8 -45 -17 -66 -21 -21 -4 -57 -17 -80 -29 -23 -12
-62 -29 -87 -37 -49 -16 -150 -71 -175 -97 -12 -12 -13 -19 -5 -27 8 -8 16 -5
30 12 27 33 142 92 167 86 11 -3 39 4 61 15 74 38 90 18 33 -40 -14 -14 -33
-34 -42 -45 -23 -28 -67 -63 -95 -76 -13 -6 -31 -22 -39 -35 -9 -12 -21 -23
-27 -23 -6 0 -21 -8 -32 -19 -28 -24 -157 -73 -281 -106 -146 -39 -257 -70
-374 -104 -57 -17 -110 -31 -117 -31 -8 0 -14 -4 -14 -9 0 -5 -12 -11 -27 -14
-16 -3 -53 -13 -83 -21 -30 -9 -64 -18 -75 -21 -139 -29 -170 -38 -176 -46 -3
-6 -20 -11 -38 -11 -34 -1 -55 -18 -22 -18 30 0 125 22 131 30 3 4 41 15 85
24 44 10 114 29 155 42 41 13 83 24 93 24 9 0 17 4 17 9 0 5 25 11 55 13 39 3
61 11 75 25 12 13 38 24 71 28 29 4 67 14 85 21 39 17 98 20 74 4 -23 -15 -2
-12 28 4 32 16 120 49 177 66 22 7 59 21 83 31 23 11 48 19 55 19 18 0 137 78
137 90 0 6 5 10 10 10 14 0 30 13 111 90 76 72 85 86 67 107 -10 12 -7 13 15
8 21 -6 32 -2 48 16 11 13 18 18 14 11 -3 -6 -3 -12 0 -12 15 0 165 76 165 83
0 24 44 51 101 62 34 7 12 -9 -29 -20 -27 -8 -38 -17 -40 -33 -2 -12 2 -22 8
-22 7 0 10 6 7 13 -3 9 10 20 37 31 23 10 47 26 54 36 6 10 22 65 34 122 20
91 23 129 22 338 0 198 -4 252 -22 345 -42 216 -106 507 -132 606 -6 20 -10
46 -10 59 0 23 -46 184 -60 211 -5 9 -22 68 -39 130 -16 63 -39 135 -50 161
-11 26 -30 80 -42 120 -11 40 -31 91 -44 113 -12 22 -31 63 -40 90 -10 28 -24
57 -31 65 -25 31 -94 178 -115 245 -11 39 -25 75 -29 80 -4 6 -10 28 -14 50
-18 115 -28 164 -66 315 -23 91 -50 197 -61 235 -20 75 -68 264 -117 460 -68
268 -75 289 -117 355 -23 36 -55 81 -71 102 -16 20 -37 47 -46 60 -50 66 -199
190 -305 253 -18 11 -33 22 -33 26 0 4 -13 12 -29 17 -16 6 -55 27 -86 47 -32
20 -60 34 -63 31 -3 -4 -12 0 -21 8 -21 18 -144 55 -352 106 -134 33 -181 41
-250 40 -46 -1 -145 1 -219 4 -288 14 -510 15 -503 3 5 -9 3 -9 -8 -1 -12 10
-91 22 -185 29 -17 1 -40 10 -52 21 -41 38 -53 45 -65 41 -7 -2 2 -11 18 -20
17 -9 25 -16 19 -17 -15 0 -64 24 -64 33 0 4 -13 7 -29 7 -19 0 -36 8 -48 23
-10 13 -22 24 -28 25 -5 0 -11 9 -13 19 -3 15 -1 16 7 3 19 -27 12 -2 -9 32
-12 21 -18 45 -16 68 2 19 1 27 -1 18 -6 -26 -23 -22 -23 5 0 12 6 55 14 94 7
40 10 70 6 68 -5 -3 -10 0 -12 7 -3 9 -6 9 -12 0z m11 -34 c-3 -8 -6 -5 -6 6
-1 11 2 17 5 13 3 -3 4 -12 1 -19z m2427 -1107 c-5 -5 -33 30 -34 43 0 4 9 -2
19 -15 11 -13 17 -26 15 -28z m526 -4271 c0 -5 -5 -10 -11 -10 -5 0 -7 5 -4
10 3 6 8 10 11 10 2 0 4 -4 4 -10z"/>
<path d="M3651 8424 c0 -11 3 -14 6 -6 3 7 2 16 -1 19 -3 4 -6 -2 -5 -13z"/>
<path d="M5348 8143 c7 -3 16 -2 19 1 4 3 -2 6 -13 5 -11 0 -14 -3 -6 -6z"/>
<path d="M6800 7894 c0 -8 71 -36 78 -30 2 3 -4 8 -14 11 -10 4 -27 11 -36 16
-20 10 -28 11 -28 3z"/>
<path d="M1704 7848 c-5 -8 -2 -9 11 -4 18 7 18 6 0 -14 -10 -11 -25 -18 -34
-16 -9 3 -36 -13 -65 -39 -27 -24 -52 -42 -56 -40 -4 3 -14 -5 -23 -18 -8 -12
-31 -39 -51 -60 -47 -50 -96 -122 -96 -141 0 -8 -5 -18 -10 -21 -6 -4 -25 -36
-43 -73 -18 -37 -38 -76 -44 -87 -6 -11 -21 -51 -33 -90 -13 -38 -26 -74 -30
-80 -4 -5 -17 -37 -28 -70 -12 -33 -30 -83 -40 -111 -11 -28 -23 -73 -27 -100
-4 -27 -10 -53 -13 -59 -4 -5 -8 -20 -10 -32 -1 -12 -18 -66 -38 -119 -19 -53
-33 -102 -31 -108 2 -6 10 7 17 29 7 22 16 45 20 50 7 9 34 93 67 215 33 118
76 231 103 267 15 21 37 70 50 108 13 39 27 77 31 85 5 8 15 29 22 45 49 107
62 131 74 138 7 5 11 13 8 18 -7 11 27 70 52 90 15 13 15 12 4 -9 -7 -13 -10
-26 -7 -30 3 -3 6 0 6 6 0 6 12 24 26 39 14 15 43 47 64 70 22 23 46 45 54 50
33 19 117 104 111 113 -8 14 -32 13 -41 -2z m-145 -173 c-26 -28 -59 -50 -59
-39 0 10 73 74 78 69 3 -2 -6 -16 -19 -30z"/>
<path d="M3230 7535 c0 -14 2 -25 4 -25 2 0 6 11 8 25 3 14 1 25 -3 25 -5 0
-9 -11 -9 -25z"/>
<path d="M1454 7535 c-3 -8 -4 -20 -2 -27 3 -7 7 -1 10 15 6 29 1 36 -8 12z"/>
<path d="M3292 7520 c0 -14 2 -19 5 -12 2 6 2 18 0 25 -3 6 -5 1 -5 -13z"/>
<path d="M8310 7490 c0 -5 5 -10 10 -10 6 0 10 5 10 10 0 6 -4 10 -10 10 -5 0
-10 -4 -10 -10z"/>
<path d="M3180 7460 c0 -5 5 -10 10 -10 6 0 10 5 10 10 0 6 -4 10 -10 10 -5 0
-10 -4 -10 -10z"/>
<path d="M3301 7412 c-6 -2 -11 -8 -11 -14 0 -9 38 -2 52 11 8 7 -22 9 -41 3z"/>
<path d="M3281 7309 c1 -13 5 -37 9 -54 7 -25 8 -21 5 18 -1 26 -5 50 -9 54
-3 3 -5 -5 -5 -18z"/>
<path d="M3232 7270 c0 -19 2 -27 5 -17 2 9 2 25 0 35 -3 9 -5 1 -5 -18z"/>
<path d="M3230 7217 c0 -8 7 -18 16 -21 11 -4 14 -1 12 11 -4 21 -28 30 -28
10z"/>
<path d="M5421 7214 c0 -11 3 -14 6 -6 3 7 2 16 -1 19 -3 4 -6 -2 -5 -13z"/>
<path d="M3300 7180 c0 -11 4 -20 9 -20 5 0 7 9 4 20 -3 11 -7 20 -9 20 -2 0
-4 -9 -4 -20z"/>
<path d="M5416 7153 c-6 -14 -5 -15 5 -6 7 7 10 15 7 18 -3 3 -9 -2 -12 -12z"/>
<path d="M7580 7099 c0 -13 5 -31 10 -39 7 -11 8 -5 4 20 -8 43 -14 51 -14 19z"/>
<path d="M1211 7004 c0 -11 3 -14 6 -6 3 7 2 16 -1 19 -3 4 -6 -2 -5 -13z"/>
<path d="M7636 6887 c3 -10 9 -15 12 -12 3 3 0 11 -7 18 -10 9 -11 8 -5 -6z"/>
<path d="M2370 6877 c0 -8 -9 -22 -19 -31 -16 -15 -38 -17 -143 -16 -67 1
-152 -1 -188 -4 -36 -4 -70 -8 -75 -8 -6 -1 -17 -8 -25 -16 -12 -13 -11 -15 8
-10 12 4 22 3 22 -2 0 -14 -44 -20 -52 -7 -5 9 -8 8 -8 -4 0 -8 -13 -25 -30
-37 -34 -25 -48 -29 -30 -7 7 8 8 15 3 15 -16 0 -32 -22 -26 -36 3 -8 0 -14
-5 -14 -6 0 -14 -9 -17 -20 -3 -11 -15 -20 -25 -20 -29 0 -43 -60 -40 -174 5
-251 8 -279 35 -341 43 -98 46 -102 95 -152 55 -55 123 -165 109 -174 -6 -3
-25 -35 -42 -70 -18 -35 -45 -85 -60 -110 -15 -25 -32 -61 -38 -80 -7 -19 -32
-62 -56 -96 -25 -35 -49 -77 -54 -95 -5 -18 -25 -50 -44 -71 -19 -21 -35 -45
-35 -53 0 -16 -24 -58 -51 -89 -10 -11 -32 -49 -50 -85 -17 -36 -46 -83 -64
-105 -17 -22 -42 -57 -54 -77 -16 -27 -27 -35 -39 -31 -14 6 -15 4 -6 -8 9
-11 5 -20 -20 -44 l-31 -30 18 28 c10 15 13 27 8 27 -14 0 -61 -71 -61 -92 0
-10 -4 -18 -9 -18 -4 0 -11 -16 -14 -36 -4 -20 -15 -46 -26 -58 -11 -12 -27
-38 -36 -59 -15 -37 -15 -38 2 -35 10 2 28 24 41 51 18 37 27 47 47 47 15 0
25 6 25 14 0 23 73 166 85 166 8 0 -16 -65 -25 -68 -22 -8 -8 -22 23 -22 30
-1 31 -1 13 -15 -18 -14 -18 -15 -2 -15 21 0 76 -31 76 -42 0 -4 -7 -8 -15 -8
-8 0 -15 -4 -15 -8 0 -4 -15 -6 -33 -4 -25 3 -41 -3 -64 -22 -16 -14 -30 -31
-31 -38 0 -7 -3 -24 -7 -38 l-6 -25 21 28 c22 28 46 35 52 16 2 -5 19 -11 38
-11 38 -1 114 -31 143 -56 9 -8 19 -13 22 -10 12 12 -65 57 -133 78 -54 17
-69 26 -58 32 9 5 29 3 52 -7 21 -8 45 -13 56 -9 13 4 18 0 18 -13 0 -15 2
-16 10 -3 8 13 12 12 28 -6 10 -11 22 -26 25 -34 3 -10 6 -7 6 8 1 12 -3 22
-9 22 -5 0 -10 7 -10 15 0 8 -4 14 -8 13 -16 -5 -102 56 -90 63 6 4 21 1 33
-7 12 -8 25 -11 30 -7 4 5 5 3 1 -4 -3 -6 -2 -14 4 -18 5 -3 10 3 10 14 0 11
-4 23 -10 26 -5 3 -10 10 -10 16 0 15 60 -56 164 -195 125 -165 153 -201 199
-255 20 -24 37 -48 37 -53 0 -5 9 -19 21 -31 11 -12 28 -39 36 -59 8 -21 19
-35 24 -32 5 3 9 0 9 -5 0 -6 -7 -11 -15 -11 -8 0 -12 -6 -9 -15 3 -8 9 -14
12 -13 13 4 52 -13 52 -22 0 -5 10 -20 23 -33 12 -13 41 -45 65 -73 46 -53 55
-60 186 -146 48 -32 88 -64 91 -70 2 -7 6 -45 9 -84 3 -39 8 -77 10 -85 3 -8
12 -72 21 -144 46 -380 74 -480 157 -569 32 -33 58 -68 58 -76 -2 -81 -32
-223 -59 -280 -48 -98 -54 -107 -120 -175 -33 -35 -61 -68 -61 -72 0 -4 -17
-26 -38 -47 -36 -39 -37 -43 -38 -115 -1 -77 -18 -134 -70 -248 -13 -28 -24
-55 -24 -58 0 -4 -22 -64 -49 -133 -27 -70 -59 -161 -71 -202 -26 -90 -45
-150 -64 -210 -13 -42 -15 -43 -16 -15 -2 17 -8 -19 -15 -80 -7 -60 -18 -150
-25 -200 -14 -101 -20 -177 -14 -187 6 -9 44 2 44 13 0 5 -7 9 -15 9 -12 0
-14 7 -9 27 4 16 11 36 15 45 5 9 9 34 9 55 0 29 3 35 11 23 7 -11 8 -4 4 27
-11 73 71 429 135 583 11 25 22 56 25 70 3 14 10 34 15 45 34 79 50 119 50
129 0 6 8 29 19 51 22 46 38 92 55 152 6 23 15 45 19 49 3 4 26 0 49 -9 24 -8
50 -15 58 -16 30 -1 272 -63 321 -82 15 -6 37 -12 50 -13 56 -7 99 -19 99 -27
0 -4 17 -11 38 -14 129 -22 295 -66 357 -96 71 -33 223 -79 264 -79 9 0 55
-14 102 -31 l87 -31 -9 -31 c-5 -17 -7 -33 -4 -35 2 -2 8 11 13 29 8 32 11 34
48 32 77 -4 110 -4 144 2 32 5 38 1 69 -36 26 -32 34 -52 37 -88 1 -25 3 -48
4 -51 6 -14 -4 -48 -22 -72 -11 -16 -15 -28 -10 -28 12 0 37 30 26 30 -5 0 -1
5 9 11 14 8 23 5 44 -15 23 -23 35 -26 102 -28 165 -4 223 9 245 56 8 17 17
45 21 61 13 57 16 65 30 65 7 0 22 17 32 38 l18 39 160 31 c88 18 210 37 270
42 108 11 251 26 330 36 22 2 76 9 120 14 44 6 130 15 190 21 206 19 225 22
225 29 0 4 27 10 61 14 67 7 143 28 202 57 l38 18 25 -56 c14 -31 28 -70 31
-87 3 -17 12 -40 19 -51 11 -18 36 -94 39 -120 3 -26 30 -101 40 -110 22 -19
67 -187 122 -450 8 -38 17 -77 20 -85 15 -39 15 -33 21 -202 1 -34 7 -58 13
-58 7 0 9 37 5 118 -7 151 -15 213 -31 232 -7 8 -18 53 -24 100 -14 96 -35
188 -55 240 -14 36 -31 93 -61 212 -10 38 -46 126 -81 198 -35 71 -64 134 -64
140 0 5 -3 10 -7 10 -5 0 -9 23 -10 51 0 29 -7 63 -14 76 -11 20 -11 26 1 33
12 8 11 10 -5 10 -24 1 -90 131 -104 207 -9 45 1 232 13 251 2 4 1 35 -3 68
-4 34 -4 67 -1 75 4 8 12 24 19 37 6 12 20 61 31 109 12 48 24 92 28 97 13 18
15 79 3 72 -10 -7 -42 -106 -56 -174 -4 -18 -10 -30 -14 -28 -4 3 -8 -3 -9
-12 -12 -103 -11 -101 -49 -95 -19 3 -44 1 -56 -5 -21 -11 -127 -32 -272 -53
-38 -6 -72 -14 -75 -19 -3 -4 -39 -11 -80 -14 -41 -4 -118 -11 -170 -17 -105
-10 -328 -28 -460 -35 -47 -3 -108 -12 -137 -20 -28 -8 -63 -14 -77 -14 -15 0
-42 -6 -60 -14 -33 -14 -35 -13 -62 15 -15 16 -33 29 -40 29 -17 0 -28 159
-21 312 3 68 8 242 12 388 4 146 8 308 9 360 4 112 -3 134 -42 148 l-30 10 2
194 c2 106 4 264 5 350 l1 157 29 17 c17 10 27 23 24 31 -3 7 2 15 10 19 13 5
15 25 11 125 -2 78 0 118 6 114 6 -3 10 1 10 9 0 9 -4 16 -10 16 -5 0 -8 37
-6 88 2 48 4 182 5 297 1 122 6 201 11 190 4 -12 15 -27 24 -34 15 -12 16 -29
11 -125 -3 -61 -8 -132 -11 -158 -4 -41 -2 -48 18 -59 26 -14 165 -19 190 -6
15 6 18 23 19 110 2 159 10 218 34 231 34 19 37 33 40 180 4 230 15 336 34
336 9 0 23 5 31 11 12 8 8 9 -16 5 l-31 -5 4 132 c3 73 8 161 11 197 9 89 5
121 -16 118 -14 -3 -17 8 -20 60 -2 35 1 61 6 58 5 -3 25 -6 45 -8 21 -1 37
-5 37 -8 0 -13 855 -124 1150 -150 203 -18 188 -11 186 -82 -1 -32 1 -61 4
-64 3 -3 10 -40 16 -83 8 -56 19 -87 40 -118 16 -23 32 -42 36 -43 4 0 32 -25
63 -55 32 -30 64 -55 73 -55 15 0 82 -41 110 -67 7 -7 24 -16 38 -19 19 -5 24
-13 25 -38 0 -17 9 -56 19 -86 18 -53 19 -53 15 -15 l-4 40 10 -40 c5 -22 14
-56 19 -75 5 -19 6 -47 4 -61 -3 -14 1 -50 10 -80 8 -30 24 -88 36 -129 12
-41 36 -131 55 -200 79 -299 93 -343 126 -418 11 -23 24 -40 28 -37 5 2 16
-13 25 -36 17 -43 97 -162 104 -155 3 4 -26 55 -38 66 -9 8 -56 92 -64 115
-11 30 8 6 35 -45 13 -25 39 -65 56 -89 18 -24 33 -52 33 -61 0 -10 7 -23 15
-30 8 -6 17 -22 21 -33 4 -12 22 -45 40 -73 19 -28 34 -53 34 -55 0 -3 -16
-13 -35 -23 -29 -16 -32 -21 -20 -30 17 -13 9 -28 -25 -46 l-25 -12 25 23 c22
21 22 24 6 27 -10 2 -29 -9 -45 -27 -15 -17 -32 -31 -38 -31 -17 0 -94 -91
-87 -102 5 -8 1 -9 -10 -5 -9 4 -15 3 -12 -2 8 -12 -59 -42 -77 -35 -8 3 -18
1 -21 -4 -3 -5 11 -8 32 -6 29 2 33 0 19 -7 -9 -6 -15 -14 -12 -20 8 -13 31 1
84 50 24 23 49 41 55 41 6 0 -2 -9 -19 -20 -41 -27 -21 -25 24 2 40 25 65 45
90 70 9 9 37 26 61 37 25 11 39 21 31 21 -22 0 -114 -53 -144 -83 -15 -15 -32
-25 -39 -21 -7 4 -1 12 16 21 14 7 26 18 26 22 0 5 19 20 43 34 49 29 94 67
81 68 -5 0 2 5 15 10 16 6 28 6 37 -2 18 -14 84 -147 84 -168 1 -19 27 -57 35
-49 3 3 -1 34 -8 70 -13 62 -38 117 -65 146 -19 21 -66 116 -63 127 1 6 -1 7
-5 2 -9 -9 -44 21 -44 38 0 6 -21 38 -46 70 -25 33 -64 98 -86 145 -23 47 -70
144 -104 215 -35 72 -72 157 -83 190 -11 33 -32 93 -46 134 -14 40 -25 84 -25
97 0 13 -5 24 -11 24 -7 0 -8 11 -4 29 4 18 -7 83 -30 177 -34 144 -46 195
-63 278 -4 22 -13 41 -21 44 -9 3 -11 -2 -7 -14 3 -11 1 -26 -5 -34 -7 -11 -9
-6 -7 20 3 31 7 35 33 38 48 4 105 22 105 33 0 6 4 8 9 5 5 -4 11 -3 13 1 6
14 67 53 82 53 9 0 22 13 30 28 17 33 46 60 46 44 0 -6 -7 -15 -16 -20 -9 -5
-15 -15 -12 -22 4 -14 128 108 128 127 0 7 5 13 10 13 6 0 10 5 10 11 0 7 11
22 25 35 14 13 26 33 26 46 1 13 3 32 5 43 1 11 5 53 8 93 3 40 8 77 11 82 4
6 -1 13 -9 16 -9 3 -16 13 -16 22 0 8 -3 13 -6 9 -4 -3 -13 0 -20 8 -15 14
-17 37 -10 93 5 36 -9 44 -17 10 -8 -29 -20 -16 -21 21 -1 19 3 27 12 24 6 -3
12 -3 12 0 0 11 -47 57 -59 57 -6 0 -11 5 -11 12 0 6 -2 9 -5 6 -8 -7 16 -58
27 -58 4 0 8 -4 8 -8 0 -5 -7 -9 -15 -9 -8 0 -15 4 -15 8 0 4 -6 9 -14 12 -7
3 -13 0 -13 -6 0 -7 -1 -22 -1 -34 l-2 -23 -20 20 c-12 12 -18 26 -14 33 5 9
4 9 -5 1 -8 -7 -32 -3 -84 14 -91 31 -205 35 -255 8 -27 -14 -39 -15 -67 -6
-18 6 -36 18 -39 26 -3 8 -10 12 -16 9 -5 -3 -10 0 -10 8 0 25 13 27 33 4 l19
-22 -6 22 c-5 16 -2 23 13 28 11 3 22 14 25 23 3 10 17 18 32 19 15 0 30 6 33
11 4 7 12 7 20 3 16 -10 6 -31 -15 -31 -8 0 -14 -4 -14 -10 0 -5 -8 -10 -17
-11 -15 0 -15 -2 2 -8 11 -5 22 -4 23 0 2 5 10 9 18 9 8 0 14 6 14 13 0 7 7
22 15 33 13 17 13 14 0 -23 -8 -24 -10 -43 -5 -43 6 0 10 9 10 19 0 28 20 37
21 9 1 -15 4 -11 8 12 6 31 3 37 -24 54 -19 12 -31 14 -33 7 -2 -6 -8 -9 -13
-5 -5 3 -16 -2 -25 -10 -20 -20 -34 -20 -34 -1 0 20 -53 20 -70 0 -7 -9 -10
-18 -6 -22 3 -3 6 -2 6 3 0 5 14 10 30 11 36 3 39 -13 5 -29 -14 -6 -25 -18
-25 -25 0 -10 -6 -12 -20 -8 -15 5 -22 1 -29 -17 -6 -13 -10 -17 -10 -10 -1
15 -31 16 -31 0 0 -21 -11 0 -16 30 -4 25 1 33 33 58 21 15 39 31 41 36 2 4 9
5 17 2 15 -6 30 12 16 20 -11 7 -94 -39 -120 -67 -42 -45 -61 -70 -73 -98 -15
-33 5 -34 -278 2 -85 10 -167 19 -182 19 -15 0 -31 7 -37 17 -7 13 -12 14 -23
6 -10 -9 -35 -9 -93 -1 -44 6 -82 14 -85 17 -5 8 -243 37 -370 46 -41 3 -86 7
-100 9 -14 2 -81 12 -150 21 -69 9 -170 22 -225 30 -55 8 -121 17 -146 20
l-46 6 -10 -43 -11 -43 -2 40 c-5 59 -17 -86 -19 -215 -1 -64 -5 -100 -10 -91
-7 11 -11 10 -20 -5 -9 -17 -10 -17 -11 6 -5 190 -6 205 -20 205 -8 0 -20 12
-27 27 -10 22 -19 27 -55 30 l-43 3 -3 61 -3 61 -59 1 -60 1 0 -53 0 -53 -62
-12 c-35 -7 -70 -17 -78 -22 -8 -5 -23 -12 -32 -15 -19 -7 -33 -72 -23 -105 4
-13 3 -19 -3 -15 -6 3 -6 -11 -1 -41 9 -46 2 -62 -25 -63 -4 0 -5 75 -1 168 4
92 6 175 6 185 0 9 6 17 12 17 7 0 3 6 -8 12 -14 8 -78 11 -205 9 -101 -1
-187 -4 -191 -6 -3 -2 -270 -7 -592 -11 -524 -6 -587 -5 -587 8 0 9 -7 21 -15
28 -8 6 -13 15 -12 19 3 10 -46 81 -55 81 -5 0 -8 6 -8 14 0 8 -10 16 -22 18
-21 3 -23 8 -20 47 2 28 -1 47 -10 52 -20 13 -38 11 -38 -4z m-142 -96 c11 -7
10 -9 -3 -14 -9 -4 -14 -3 -10 2 3 5 -1 12 -7 14 -7 3 -8 6 -3 6 6 0 16 -3 23
-8z m-58 -25 c0 -3 -4 -8 -10 -11 -5 -3 -10 -1 -10 4 0 6 5 11 10 11 6 0 10
-2 10 -4z m73 -14 c-21 -22 -26 -21 -17 2 3 9 12 16 20 16 11 0 10 -4 -3 -18z
m-132 -23 c5 -20 1 -27 -17 -36 -30 -14 -42 2 -14 19 24 15 26 28 4 28 -8 0
-12 5 -9 11 11 16 28 5 36 -22z m299 21 c0 -5 -7 -10 -15 -10 -8 0 -15 5 -15
10 0 6 7 10 15 10 8 0 15 -4 15 -10z m36 -25 c4 -14 4 -29 0 -32 -3 -4 -6 4
-6 16 0 12 -4 19 -10 16 -5 -3 -10 1 -10 9 0 26 19 18 26 -9z m-491 5 c7 6 20
8 28 4 14 -5 12 -10 -9 -30 -28 -29 -44 -24 -43 14 0 15 3 21 6 14 3 -9 9 -10
18 -2z m220 0 c-3 -5 -1 -10 5 -10 8 0 8 -5 1 -17 -7 -13 -5 -23 6 -36 21 -22
10 -33 -19 -19 -21 10 -22 11 -3 11 11 1 16 5 10 9 -5 4 -16 17 -22 29 -11 19
-10 24 5 32 22 13 25 13 17 1z m146 -17 c-12 -20 -14 -14 -5 12 4 9 9 14 11
11 3 -2 0 -13 -6 -23z m-271 7 c0 -5 -5 -10 -11 -10 -5 0 -7 5 -4 10 3 6 8 10
11 10 2 0 4 -4 4 -10z m233 -41 c7 0 3 -4 -8 -8 -23 -9 -57 -3 -50 10 3 4 13
5 22 2 12 -5 15 -2 10 9 -3 9 -3 19 1 23 4 4 8 -3 10 -14 2 -12 9 -21 15 -22z
m67 5 c0 -8 -5 -12 -10 -9 -6 4 -8 11 -5 16 9 14 15 11 15 -7z m84 -26 c-10
-16 -22 -7 -17 13 4 15 8 17 14 8 4 -7 5 -17 3 -21z m-504 8 c0 -8 -5 -18 -12
-22 -7 -5 -8 -3 -3 6 6 9 4 11 -4 6 -7 -5 -10 -14 -8 -20 3 -7 -1 -13 -8 -13
-10 0 -11 5 -4 19 5 10 6 18 2 18 -10 0 19 20 30 20 4 0 7 -6 7 -14z m100 10
c0 -11 -33 -36 -47 -36 -11 0 -9 6 8 20 23 18 39 25 39 16z m-162 -33 c0 -16
2 -39 4 -53 2 -17 -2 -25 -14 -28 -11 -2 -18 3 -18 13 0 10 -5 13 -12 9 -8 -5
-9 -2 -5 10 4 10 7 31 7 47 0 22 5 29 19 29 13 0 18 -8 19 -27z m532 -13 c0
-4 -12 -7 -26 -7 -14 0 -21 3 -15 7 7 4 9 15 5 26 -7 19 -7 19 14 0 12 -11 22
-22 22 -26z m-254 -7 c-3 -4 -6 -1 -6 6 0 7 -4 10 -9 6 -5 -3 -13 0 -17 6 -4
8 -3 9 4 5 7 -4 12 -1 12 6 0 8 5 6 11 -5 6 -10 8 -21 5 -24z m-62 21 c20 -8
21 -24 1 -24 -8 0 -15 -4 -15 -9 0 -5 -14 -11 -31 -15 -17 -3 -28 -10 -24 -16
3 -5 1 -10 -4 -10 -6 0 -11 3 -11 6 0 5 62 74 66 74 1 0 9 -3 18 -6z m420 -9
c4 -11 -1 -15 -19 -15 -14 0 -25 5 -25 11 0 6 7 9 15 5 8 -3 15 -1 15 4 0 15
7 12 14 -5z m-189 -5 c16 -7 12 -9 -17 -8 -21 1 -38 6 -38 10 0 10 29 9 55 -2z
m-88 -6 c-3 -3 -12 -4 -19 -1 -8 3 -5 6 6 6 11 1 17 -2 13 -5z m-227 -13 c0
-6 -5 -13 -11 -16 -6 -4 -8 -14 -5 -22 3 -8 1 -11 -4 -8 -5 3 -17 -10 -27 -29
-22 -48 -43 -55 -40 -14 1 19 14 44 32 64 29 32 55 43 55 25z m1956 -11 c8 0
14 5 14 10 0 6 7 10 16 10 32 0 7 -25 -34 -34 -35 -8 -41 -13 -36 -29 4 -13 2
-17 -5 -13 -6 4 -11 2 -11 -3 0 -6 5 -11 11 -11 8 0 8 -5 -1 -15 -27 -33 11
-14 45 22 19 20 35 33 35 28 0 -6 -18 -29 -39 -52 -22 -23 -42 -51 -46 -63 -3
-11 -11 -20 -16 -20 -6 0 -7 5 -4 10 3 6 2 10 -4 10 -5 0 -18 -13 -28 -30 -15
-26 -23 -30 -58 -30 -22 0 -48 7 -57 14 -25 19 -11 26 20 10 17 -8 30 -10 37
-4 7 6 14 8 17 5 3 -3 10 1 17 8 9 12 1 14 -51 13 -57 -1 -63 -3 -69 -26 l-6
-25 -4 25 c-4 24 -39 42 -39 20 0 -6 4 -9 9 -5 5 3 12 1 16 -5 3 -5 1 -10 -4
-10 -6 0 -12 -8 -12 -17 -1 -16 -2 -15 -6 1 -4 15 -7 16 -14 5 -7 -12 -9 -12
-9 0 0 11 -3 11 -17 0 -11 -10 -14 -10 -9 -1 4 7 1 12 -8 12 -9 0 -16 5 -16
11 0 8 -38 10 -127 6 -71 -3 -134 -7 -142 -9 -16 -3 -28 33 -30 95 -1 35 1 37
19 27 14 -8 26 -8 41 0 11 7 23 9 27 6 3 -3 0 -6 -6 -6 -7 0 -12 -3 -12 -7 0
-5 18 -8 40 -8 22 -1 40 3 40 7 0 4 -4 8 -10 8 -5 0 -10 5 -10 10 0 6 12 8 27
5 15 -2 71 -5 125 -6 88 -1 98 -3 98 -19 0 -10 -8 -21 -17 -23 -14 -4 -14 -5
3 -6 17 -1 23 7 28 32 5 23 9 28 15 18 8 -12 27 -14 89 -9 6 1 12 12 12 25 0
19 5 23 28 22 23 -2 24 -2 5 -6 -35 -7 -30 -40 5 -41 23 0 30 6 40 30 8 22 16
29 27 24 10 -3 18 1 22 11 4 11 8 13 11 5 2 -7 10 -12 18 -12z m94 11 c0 -5
-7 -14 -15 -21 -16 -14 -18 -10 -9 14 6 17 24 22 24 7z m-566 -19 c2 -4 -4 -9
-15 -9 -10 -1 -19 2 -19 8 0 11 27 12 34 1z m56 4 c0 -2 -7 -6 -15 -10 -8 -3
-15 -1 -15 4 0 6 7 10 15 10 8 0 15 -2 15 -4z m250 -21 c0 -8 -2 -15 -4 -15
-2 0 -6 7 -10 15 -3 8 -1 15 4 15 6 0 10 -7 10 -15z m-1640 -5 c-20 -13 -40
-13 -40 0 0 6 12 10 28 10 21 0 24 -2 12 -10z m-330 -32 c0 -5 -7 -8 -15 -8
-17 0 -18 2 -9 25 5 13 8 14 15 3 5 -7 9 -16 9 -20z m455 18 c-17 -12 -18 -16
-5 -32 14 -18 14 -18 -3 -5 -10 8 -16 20 -13 27 3 7 0 15 -7 18 -7 2 1 5 17 5
28 1 29 0 11 -13z m861 -19 c12 4 15 3 10 -5 -4 -7 -2 -12 3 -12 6 0 11 6 11
13 0 14 57 17 77 4 6 -4 15 -2 20 5 9 15 20 -26 22 -79 1 -30 -1 -32 -46 -41
-27 -5 -145 -10 -263 -11 -118 0 -259 -2 -313 -4 -53 -1 -97 1 -97 6 0 4 8 7
17 7 9 0 13 3 9 8 -11 10 -75 9 -68 -2 3 -5 -2 -7 -11 -3 -12 4 -17 1 -18 -11
0 -10 -3 -12 -6 -4 -2 6 -18 12 -33 12 -16 0 -32 5 -35 10 -3 6 -18 9 -33 9
l-27 -1 30 -9 c25 -7 22 -7 -17 -5 -36 2 -48 -1 -51 -13 -3 -9 -6 2 -7 24 -1
22 -4 32 -7 23 -2 -10 -11 -18 -19 -18 -8 0 -14 -4 -14 -10 0 -5 5 -10 12 -10
6 0 8 -3 5 -7 -10 -10 -117 -12 -117 -2 0 16 -30 -3 -31 -20 0 -12 -2 -12 -6
-2 -5 11 -7 11 -14 0 -6 -10 -9 -11 -9 -1 0 6 -6 12 -14 12 -22 0 -31 20 -31
73 0 45 2 49 28 54 15 3 27 10 27 15 0 5 5 6 11 2 6 -3 15 0 20 7 7 11 9 10 9
-3 0 -11 8 -18 20 -18 11 0 20 -7 20 -15 0 -22 206 -21 214 1 3 8 16 13 28 13
l23 -2 -22 -4 c-13 -2 -23 -8 -23 -13 0 -5 108 -9 240 -9 132 -1 240 2 240 7
0 5 -15 8 -32 8 -33 -1 -66 19 -54 32 4 3 15 1 26 -6 23 -14 111 -7 122 11 6
9 8 9 8 0 0 -6 8 -10 19 -8 13 2 17 -1 14 -13 -3 -14 -13 -16 -49 -14 -27 3
-44 0 -44 -7 0 -19 88 -14 98 6 10 17 28 23 70 25 13 0 22 7 23 17 0 11 3 9 9
-6 7 -16 14 -21 26 -16z m1236 8 c3 -14 1 -25 -3 -25 -5 0 -9 11 -9 25 0 14 2
25 4 25 2 0 6 -11 8 -25z m-2475 -7 c-3 -8 -6 -5 -6 6 -1 11 2 17 5 13 3 -3 4
-12 1 -19z m190 5 c-9 -9 -19 -14 -23 -11 -10 10 6 28 24 28 15 0 15 -1 -1
-17z m1318 7 c3 -5 1 -10 -4 -10 -6 0 -11 5 -11 10 0 6 2 10 4 10 3 0 8 -4 11
-10z m-1415 -31 c0 -6 -4 -8 -8 -5 -5 3 -9 -1 -9 -9 0 -8 4 -12 8 -10 3 3 9
-5 13 -18 8 -32 7 -87 -2 -87 -4 0 -13 -14 -19 -30 -6 -17 -8 -28 -3 -25 5 3
11 -3 13 -12 3 -11 3 -10 2 4 -1 14 3 19 11 16 9 -3 13 -26 13 -71 0 -61 -2
-65 -15 -48 -8 11 -14 24 -14 29 0 4 -4 6 -9 2 -21 -12 -31 88 -13 122 8 14 9
24 2 28 -5 3 -10 1 -10 -5 0 -6 -5 -8 -11 -4 -16 9 -6 84 16 117 16 25 35 28
35 6z m576 14 c-4 -4 -21 -8 -38 -9 -21 -1 -26 1 -17 7 17 11 65 12 55 2z
m131 1 c-3 -3 -12 -4 -19 -1 -8 3 -5 6 6 6 11 1 17 -2 13 -5z m73 0 c0 -8 -19
-13 -24 -6 -3 5 1 9 9 9 8 0 15 -2 15 -3z m1272 -105 c-3 -92 -4 -96 -24 -91
-16 4 -19 10 -14 34 3 16 2 27 -3 23 -5 -3 -12 3 -14 12 -3 10 -5 -1 -6 -25
-1 -29 -5 -42 -13 -40 -15 5 -18 44 -7 88 8 35 69 112 79 101 3 -3 4 -49 2
-102z m865 89 c7 -1 15 -7 17 -15 5 -11 10 -11 30 2 22 15 62 15 85 1 5 -4 12
-2 16 4 4 6 12 7 18 3 12 -8 39 -11 117 -15 25 -1 51 -6 58 -11 8 -6 17 -5 26
2 11 9 14 6 14 -14 0 -19 -6 -25 -21 -25 -41 0 -8 -11 44 -14 30 -2 65 -6 78
-10 21 -5 23 -2 19 23 -4 27 -2 28 36 27 22 -1 41 -7 44 -14 2 -7 13 -12 23
-12 11 0 18 -4 14 -9 -3 -6 -18 -6 -38 0 -17 5 -33 9 -34 9 -2 0 -3 -10 -3
-22 0 -15 3 -19 11 -11 12 12 61 5 53 -9 -3 -5 3 -4 15 4 12 7 21 19 21 26 0
18 82 12 88 -7 3 -10 -3 -12 -27 -9 -32 5 -42 -5 -15 -16 32 -12 54 -6 54 15
0 17 5 20 23 16 12 -3 43 -9 70 -12 26 -4 47 -11 47 -16 0 -5 -11 -7 -24 -3
-28 7 -65 -9 -47 -20 6 -4 11 -2 11 5 0 10 3 10 12 1 7 -7 22 -12 35 -12 17 0
23 6 24 23 1 20 2 20 6 2 3 -11 10 -24 15 -30 7 -7 9 -3 5 12 -5 24 7 33 36
25 20 -5 22 -18 5 -28 -7 -4 -8 -3 -4 4 4 7 1 12 -8 12 -19 0 -21 -17 -3 -33
13 -13 97 -17 97 -5 0 12 28 10 32 -2 2 -6 34 -13 71 -17 64 -6 68 -5 74 15 3
12 9 19 15 16 5 -3 5 -11 -2 -19 -8 -10 -8 -15 1 -21 7 -4 15 -2 17 4 2 7 8 9
14 6 5 -3 15 2 22 12 13 17 14 16 20 -4 6 -17 13 -21 30 -16 21 5 23 3 19 -23
-4 -25 -3 -26 10 -10 8 9 17 17 20 17 3 0 8 -8 10 -17 4 -14 5 -12 6 5 0 12 5
22 10 22 5 0 16 3 25 6 12 5 16 0 16 -17 0 -18 3 -20 9 -10 7 11 10 10 14 -5
4 -16 5 -16 6 4 1 26 21 30 22 5 0 -16 1 -16 8 1 6 17 8 17 23 3 14 -15 16
-15 21 3 3 12 14 19 28 19 53 -1 224 -23 229 -30 3 -4 32 -10 65 -13 115 -12
115 -12 112 -61 -1 -24 3 -44 8 -44 6 0 9 19 8 42 -2 32 0 37 7 22 15 -34 11
-63 -17 -115 -20 -38 -33 -50 -50 -50 -13 0 -23 5 -23 10 0 6 -12 10 -26 10
-14 0 -23 4 -20 9 3 4 -6 6 -19 3 -16 -3 -25 0 -25 9 0 7 -3 9 -6 6 -4 -3 -15
-2 -25 4 -12 6 -19 6 -19 0 0 -10 -93 -5 -120 6 -15 6 -98 12 -174 13 -22 0
-45 5 -53 11 -7 7 -28 9 -47 6 -19 -3 -36 -1 -38 4 -2 5 -19 11 -38 13 -19 2
-42 6 -50 9 -8 3 -40 9 -70 12 -112 13 -125 15 -138 20 -7 2 -15 -2 -18 -10
-6 -15 -54 -22 -54 -7 0 4 -17 7 -38 8 -96 2 -304 29 -330 43 -36 20 -87 32
-90 21 -6 -18 -22 -11 -22 11 0 19 -1 19 -16 5 -20 -21 -58 -21 -50 -1 3 8 4
15 2 15 -3 0 -11 3 -20 6 -12 4 -16 0 -17 -17 -2 -24 -2 -24 -6 -1 -5 25 -23
30 -23 7 0 -17 -66 -22 -72 -6 -3 10 -39 15 -191 27 -68 5 -90 11 -95 23 -8
22 -32 45 -39 37 -8 -8 -33 41 -33 65 0 11 5 19 10 19 18 0 10 15 -17 33 l-28
18 40 -6 c22 -4 45 -7 52 -7z m35 -10 c-7 -7 -12 -8 -12 -2 0 14 12 26 19 19
2 -3 -1 -11 -7 -17z m-3082 -38 c0 -16 -29 -75 -30 -60 0 12 -2 13 -9 1 -5 -8
-11 -9 -15 -3 -10 17 25 81 40 75 8 -3 14 -9 14 -13z m2930 -23 c18 -30 25
-59 27 -99 l2 -58 -37 0 c-43 0 -74 16 -55 28 9 6 19 76 22 155 1 28 14 20 41
-26z m567 11 c-3 -7 -5 -2 -5 12 0 14 2 19 5 13 2 -7 2 -19 0 -25z m1140 -20
c-3 -7 -5 -2 -5 12 0 14 2 19 5 13 2 -7 2 -19 0 -25z m-4627 -13 c0 -8 -4 -15
-10 -15 -5 0 -7 7 -4 15 4 8 8 15 10 15 2 0 4 -7 4 -15z m675 -15 c-3 -5 -10
-10 -16 -10 -5 0 -9 5 -9 10 0 6 7 10 16 10 8 0 12 -4 9 -10z m840 -21 c-4 -5
-14 -8 -23 -8 -15 1 -15 2 1 6 9 2 14 9 11 15 -4 7 -2 8 5 4 6 -4 9 -12 6 -17z
m-145 1 c0 -5 -4 -10 -10 -10 -5 0 -10 5 -10 10 0 6 5 10 10 10 6 0 10 -4 10
-10z m92 -12 c-12 -12 -35 -1 -27 12 3 5 13 6 21 3 10 -4 12 -9 6 -15z m148 6
c0 -2 -9 -4 -20 -4 -11 0 -20 4 -20 9 0 5 9 7 20 4 11 -3 20 -7 20 -9z m45 6
c3 -5 -3 -10 -14 -10 -12 0 -21 5 -21 10 0 6 6 10 14 10 8 0 18 -4 21 -10z
m65 0 c0 -12 -8 -12 -35 0 -18 8 -17 9 8 9 15 1 27 -3 27 -9z m840 0 c0 -5 -4
-10 -10 -10 -5 0 -10 5 -10 10 0 6 5 10 10 10 6 0 10 -4 10 -10z m1649 -6 c1
-1 0 -8 -4 -14 -5 -7 -11 -8 -19 -1 -7 6 -40 12 -74 13 -34 2 -62 7 -62 11 0
8 150 -1 159 -9z m491 12 c0 -2 -7 -6 -15 -10 -8 -3 -15 -1 -15 4 0 6 7 10 15
10 8 0 15 -2 15 -4z m-4755 -15 c3 -5 1 -12 -5 -16 -5 -3 -10 1 -10 9 0 18 6
21 15 7z m85 -1 c0 -5 -5 -10 -11 -10 -5 0 -7 5 -4 10 3 6 8 10 11 10 2 0 4
-4 4 -10z m490 -5 c0 -9 -6 -12 -16 -8 -13 5 -13 7 -2 14 17 11 18 11 18 -6z
m880 5 c0 -5 -2 -10 -4 -10 -3 0 -8 5 -11 10 -3 6 -1 10 4 10 6 0 11 -4 11
-10z m1047 -12 c-3 -8 -6 -5 -6 6 -1 11 2 17 5 13 3 -3 4 -12 1 -19z m2158 -6
c-3 -3 -11 0 -18 7 -9 10 -8 11 6 5 10 -3 15 -9 12 -12z m452 -12 c26 -11 43
-25 43 -36 0 -9 12 -27 26 -40 21 -20 26 -36 31 -93 3 -38 2 -78 -2 -88 -5
-10 -9 -22 -10 -28 -8 -48 -20 -74 -38 -86 -11 -8 -31 -24 -43 -36 -11 -13
-24 -23 -28 -23 -14 0 -5 103 12 143 39 90 49 131 40 177 -4 25 -12 46 -18 48
-5 2 -10 9 -10 17 0 8 -25 15 -82 19 -120 10 -130 14 -82 37 45 22 94 19 161
-11z m-3010 -2 c-3 -8 -6 -5 -6 6 -1 11 2 17 5 13 3 -3 4 -12 1 -19z m572 -5
c2 -2 -3 -3 -11 -3 -9 0 -19 7 -22 16 -6 15 -4 15 11 3 10 -7 20 -15 22 -16z
m1561 15 c0 -4 -4 -8 -9 -8 -6 0 -12 4 -15 8 -3 5 1 9 9 9 8 0 15 -4 15 -9z
m547 -4 c-3 -3 -12 -4 -19 -1 -8 3 -5 6 6 6 11 1 17 -2 13 -5z m-4843 -73 c4
-35 11 -72 17 -82 5 -11 7 -19 4 -19 -7 0 26 -62 37 -70 12 -9 29 -62 18 -55
-6 3 -10 13 -10 21 0 8 -4 14 -9 14 -4 0 -22 31 -40 68 -24 54 -31 82 -31 132
0 79 6 75 14 -9z m1864 59 l232 0 0 -43 c0 -33 -5 -46 -25 -61 -16 -12 -25
-29 -25 -47 0 -17 -5 -29 -12 -29 -10 0 -9 -3 1 -9 11 -7 12 -41 8 -177 -3
-93 -7 -275 -10 -406 -3 -130 -8 -241 -11 -247 -4 -6 -1 -11 6 -11 7 0 21 -12
31 -26 16 -22 19 -44 18 -167 -1 -78 -4 -156 -7 -173 -5 -25 -1 -34 20 -48 70
-45 207 -41 225 7 5 12 11 93 13 181 5 147 7 160 28 180 l22 21 -6 -305 c-3
-168 -9 -362 -13 -432 l-6 -127 31 -26 c37 -31 47 -32 48 -5 1 11 4 23 8 27 3
3 6 -21 6 -55 0 -54 -2 -61 -17 -55 -17 6 -17 5 -1 -13 13 -15 16 -44 17 -155
1 -75 -1 -144 -5 -153 -4 -11 -19 -16 -50 -16 -24 0 -44 -4 -44 -10 0 -5 20
-10 46 -10 l45 0 -2 -88 c-2 -134 -10 -192 -24 -192 -7 0 -17 -6 -23 -12 -6
-8 -12 -220 -16 -585 -4 -315 -10 -583 -15 -595 -12 -30 -47 -58 -58 -47 -4 4
-51 13 -103 19 -52 6 -120 18 -150 26 -30 9 -76 20 -102 26 -27 6 -48 15 -48
19 0 5 -7 9 -16 9 -9 0 -46 9 -82 20 -37 11 -110 29 -162 39 -52 11 -96 24
-98 30 -2 6 -17 11 -34 11 -16 0 -89 20 -161 44 -191 65 -255 78 -343 74 -66
-4 -77 -2 -85 15 -6 10 -24 31 -40 45 -21 19 -35 46 -45 87 -9 33 -20 66 -26
73 -21 24 -76 386 -93 612 -3 36 -14 164 -24 285 -11 121 -22 279 -25 350 -3
72 -8 139 -11 150 -2 11 -7 56 -9 100 -3 44 -12 118 -21 165 -9 47 -23 123
-31 169 -8 46 -17 88 -20 92 -10 17 -24 119 -29 209 -2 36 -8 97 -14 135 -6
39 -11 109 -11 158 0 79 -12 114 -23 70 -3 -10 -6 7 -7 37 -1 30 -4 88 -6 128
l-5 74 76 76 c41 41 75 78 75 82 0 4 7 13 15 20 8 7 13 16 10 20 -3 5 4 15 15
23 11 7 17 17 13 20 -3 4 -1 7 5 7 6 0 16 18 22 39 6 22 19 59 30 82 10 24 16
47 13 53 -3 5 -1 6 5 2 12 -7 13 -6 17 30 1 11 12 48 24 83 12 35 19 72 16 82
-6 18 7 19 387 22 216 1 402 1 413 0 11 -2 125 -3 253 -3z m-1513 -52 c0 -25
-5 -50 -11 -56 -8 -8 -11 0 -10 28 0 22 4 33 8 27 5 -7 8 -1 8 15 0 14 -5 29
-10 31 -6 3 -5 4 2 3 8 -2 13 -19 13 -48z m100 42 c3 -5 1 -10 -4 -10 -6 0
-11 5 -11 10 0 6 2 10 4 10 3 0 8 -4 11 -10z m2135 -10 c0 -11 -4 -20 -9 -20
-5 0 -7 9 -4 20 3 11 7 20 9 20 2 0 4 -9 4 -20z m-1980 -2 c-1 -7 -8 -24 -16
-38 l-15 -25 5 25 c3 14 6 31 6 38 0 6 5 12 10 12 6 0 10 -6 10 -12z m2102
-30 c-6 -6 -7 0 -4 19 5 21 7 23 10 9 2 -10 0 -22 -6 -28z m-2615 10 c-3 -8
-6 -5 -6 6 -1 11 2 17 5 13 3 -3 4 -12 1 -19z m556 7 c4 -8 2 -17 -3 -20 -6
-4 -10 3 -10 14 0 25 6 27 13 6z m84 -7 c-3 -8 -6 -5 -6 6 -1 11 2 17 5 13 3
-3 4 -12 1 -19z m20 0 c-3 -8 -6 -5 -6 6 -1 11 2 17 5 13 3 -3 4 -12 1 -19z
m1513 13 c0 -5 8 -12 18 -14 9 -3 2 -5 -15 -6 -23 -1 -33 4 -33 14 0 8 7 15
15 15 8 0 15 -4 15 -9z m347 -13 c-3 -8 -6 -5 -6 6 -1 11 2 17 5 13 3 -3 4
-12 1 -19z m130 0 c-3 -8 -6 -5 -6 6 -1 11 2 17 5 13 3 -3 4 -12 1 -19z
m-2343 -29 c-1 -13 -4 -42 -8 -64 -3 -22 -3 -32 0 -22 3 9 10 17 15 17 6 0 7
5 4 10 -4 6 -2 17 5 25 6 7 10 21 8 31 -2 10 4 18 15 20 16 2 17 -2 11 -29 -4
-18 -8 -41 -9 -53 -1 -11 -4 -25 -8 -31 -4 -6 -1 -14 5 -16 18 -8 -23 -8 -49
-1 -13 4 -23 13 -23 21 0 9 -6 13 -15 9 -8 -3 -15 -1 -15 5 0 5 7 12 16 16 13
5 13 7 2 14 -10 7 -10 9 0 9 6 0 12 9 12 19 0 30 11 52 24 48 6 -2 10 -15 10
-28z m1813 25 c-3 -3 -12 -4 -19 -1 -8 3 -5 6 6 6 11 1 17 -2 13 -5z m-2127
-36 c0 -19 -2 -20 -10 -8 -13 19 -13 30 0 30 6 0 10 -10 10 -22z m5300 7 c0
-8 -4 -15 -10 -15 -5 0 -7 7 -4 15 4 8 8 15 10 15 2 0 4 -7 4 -15z m-5181 -36
c9 -27 9 -30 -4 -19 -8 7 -15 21 -15 31 0 28 7 23 19 -12z m371 12 c0 -25 -14
-41 -36 -41 -13 0 -24 5 -24 11 0 6 7 8 16 5 11 -4 18 1 21 14 5 20 23 28 23
11z m2117 -28 c-3 -10 -5 -4 -5 12 0 17 2 24 5 18 2 -7 2 -21 0 -30z m-2377
18 c0 -5 3 -16 6 -25 4 -11 1 -16 -10 -16 -10 0 -16 9 -16 25 0 14 5 25 10 25
6 0 10 -4 10 -9z m5084 -22 c3 -19 1 -38 -5 -46 -7 -7 -9 -32 -7 -57 3 -24 2
-50 -3 -58 -6 -8 -9 2 -9 29 0 23 -4 53 -10 67 -7 20 -6 26 4 26 11 0 13 10
10 35 -5 44 11 46 20 4z m-5294 2 c0 -12 -20 -25 -27 -18 -7 7 6 27 18 27 5 0
9 -4 9 -9z m2287 -188 c-2 -37 -3 -9 -3 62 0 72 1 102 3 68 2 -34 2 -93 0
-130z m466 148 c2 -10 1 -25 -4 -32 -6 -10 -9 -4 -9 19 0 36 5 42 13 13z
m-2639 -23 c9 -17 16 -38 17 -47 0 -14 1 -13 7 1 5 12 12 14 21 9 16 -10 6
-31 -15 -31 -8 0 -14 -4 -14 -10 0 -5 -4 -10 -9 -10 -4 0 -13 27 -18 60 -5 33
-8 60 -7 60 1 0 10 -14 18 -32z m97 10 c-13 -4 -28 -5 -34 -1 -7 4 -2 10 13
13 33 9 50 -1 21 -12z m151 -10 c-7 -7 -12 -8 -12 -2 0 14 12 26 19 19 2 -3
-1 -11 -7 -17z m149 -43 c-12 -25 -24 -45 -27 -45 -11 0 2 45 19 62 9 10 17
26 18 36 0 10 2 12 6 4 3 -7 -5 -33 -16 -57z m1659 45 c4 -7 13 -10 18 -6 7 4
14 -8 18 -29 8 -46 0 -55 -18 -18 -7 15 -25 32 -39 37 -35 12 -95 -17 -108
-52 -5 -16 -10 -20 -10 -11 -1 9 13 34 31 55 26 32 38 39 66 38 19 -1 38 -7
42 -14z m422 -5 c-2 -14 -6 -25 -8 -25 -2 0 -4 11 -4 25 0 14 4 25 9 25 4 0 6
-11 3 -25z m-548 3 c-3 -4 -9 -8 -15 -8 -5 0 -9 4 -9 8 0 5 7 9 15 9 8 0 12
-4 9 -9z m-2004 -20 c0 -16 -3 -19 -11 -11 -6 6 -8 16 -5 22 11 17 16 13 16
-11z m2479 -23 c0 -5 -4 -3 -9 5 -5 8 -9 22 -9 30 0 16 17 -16 18 -35z m425 7
c-8 -2 -14 -8 -14 -13 0 -5 -9 -9 -20 -9 -26 0 -59 -53 -52 -85 5 -31 57 -76
77 -69 11 5 14 -1 13 -20 -1 -14 -7 -26 -13 -26 -5 0 -2 -7 8 -14 16 -12 17
-20 8 -52 -6 -20 -8 -41 -5 -46 3 -4 0 -8 -5 -8 -6 0 -11 -5 -11 -11 0 -5 5
-7 12 -3 8 5 9 2 4 -12 -10 -26 -18 -256 -8 -250 7 4 9 -41 3 -54 -2 -3 -5
-21 -8 -40 -6 -43 -16 -50 -73 -47 -35 1 -46 6 -48 21 -2 10 2 23 8 30 10 8
11 5 8 -16 -5 -24 -2 -27 18 -26 19 2 24 8 24 28 0 14 -6 32 -12 39 -10 11
-10 13 0 7 7 -4 12 -2 13 6 0 7 2 21 4 31 2 10 -3 17 -13 18 -11 0 -12 2 -4 6
6 2 12 12 12 21 0 15 -2 15 -10 2 -5 -8 -10 -10 -10 -4 0 6 7 17 14 24 11 8
12 18 6 36 -6 15 -6 34 0 49 5 14 9 29 9 33 -1 4 0 9 1 12 1 3 4 37 5 75 2 39
6 91 10 116 7 42 5 48 -24 76 -35 35 -38 59 -16 124 11 32 25 50 53 66 33 19
38 19 43 5 4 -10 1 -18 -7 -20z m1606 16 c0 -4 -13 -8 -30 -8 -16 0 -30 5 -30
10 0 6 14 9 30 8 17 -1 30 -6 30 -10z m-4080 -4 c0 -20 -24 -44 -46 -44 -21 0
-23 -2 -12 -14 9 -10 15 -11 20 -2 9 14 10 3 2 -18 -4 -10 -17 -16 -38 -15
-17 1 -23 3 -13 6 19 5 23 28 7 38 -5 3 -10 -1 -10 -10 0 -10 -5 -15 -14 -12
-8 3 -19 -5 -27 -19 -13 -25 -13 -25 -21 -4 -9 25 14 55 37 46 8 -3 15 -1 15
5 0 6 7 9 15 5 8 -3 15 -1 15 5 0 6 5 7 10 4 6 -3 10 1 10 9 0 13 13 20 43 25
4 0 7 -2 7 -5z m2082 -30 c-3 -22 -8 -32 -14 -26 -5 5 -5 19 1 35 14 37 18 34
13 -9z m80 17 c-6 -3 -10 -15 -9 -25 1 -10 -3 -21 -10 -23 -7 -3 -10 4 -6 19
9 43 13 49 24 42 8 -4 8 -9 1 -13z m366 -25 c-2 -12 -6 -12 -21 -2 -10 8 -15
20 -11 29 5 15 8 15 21 2 8 -8 13 -21 11 -29z m-2911 12 c-3 -8 -6 -5 -6 6 -1
11 2 17 5 13 3 -3 4 -12 1 -19z m4583 9 c0 -8 -7 -14 -15 -14 -8 0 -15 4 -15
8 0 4 -12 10 -27 12 -20 3 -15 4 15 6 29 1 42 -3 42 -12z m130 -4 c1 -5 3 -45
6 -90 4 -72 3 -82 -10 -77 -9 3 -13 10 -10 15 3 5 -3 12 -13 16 -28 10 -32 23
-32 86 1 56 2 57 30 57 16 0 29 -3 29 -7z m-2047 -18 c4 -8 2 -17 -3 -20 -6
-4 -10 3 -10 14 0 25 6 27 13 6z m-235 -17 c-2 -25 -15 -48 -29 -48 -5 0 -9 5
-9 10 0 6 6 10 14 10 9 0 12 8 8 25 -2 14 0 25 6 25 6 0 10 -10 10 -22z m200
-3 c-3 -3 -9 2 -12 12 -6 14 -5 15 5 6 7 -7 10 -15 7 -18z m2329 -7 c-3 -8 -6
-5 -6 6 -1 11 2 17 5 13 3 -3 4 -12 1 -19z m-2023 -25 c-6 -73 -25 -113 -53
-113 -16 0 -14 8 14 44 16 21 25 46 25 69 0 21 4 37 8 37 5 0 7 -17 6 -37z
m-2827 5 c-3 -8 -6 -5 -6 6 -1 11 2 17 5 13 3 -3 4 -12 1 -19z m1993 -68 c-12
-17 -27 -30 -35 -30 -18 0 -25 -33 -25 -119 0 -97 8 -88 11 11 4 151 14 92 14
-82 0 -146 -2 -175 -12 -157 -17 30 -16 12 2 -46 8 -26 11 -55 8 -64 -4 -10
-2 -14 4 -10 5 3 9 -3 8 -16 -2 -17 -8 -22 -28 -22 -16 1 -27 -5 -27 -13 0
-18 -25 -9 -25 9 0 8 -4 20 -9 28 -6 10 -5 12 2 7 8 -5 12 1 12 16 0 13 3 40
6 61 6 33 5 37 -12 31 -18 -5 -18 -5 -1 9 9 8 17 22 17 31 0 9 -8 16 -17 16
-16 1 -16 2 1 15 13 10 15 15 6 15 -13 0 -12 45 7 185 6 48 5 49 -13 35 -18
-14 -18 -14 -4 5 8 11 19 23 24 26 8 7 -12 24 -28 24 -16 0 -46 49 -50 83 -2
17 1 32 5 32 5 0 9 -7 9 -16 0 -9 8 -29 17 -45 15 -26 21 -28 58 -23 66 9 85
23 87 63 l1 36 4 -33 c3 -22 -3 -42 -17 -62z m2420 80 c0 -5 -7 -10 -16 -10
-8 0 -12 5 -9 10 3 6 10 10 16 10 5 0 9 -4 9 -10z m340 -34 c0 -27 22 -96 31
-96 4 0 10 6 13 13 3 6 5 3 3 -7 -2 -23 -46 -37 -92 -31 -16 2 -38 4 -47 4
-15 1 -18 10 -17 59 l1 57 9 -40 c5 -22 10 -46 11 -52 1 -7 5 -13 10 -13 4 0
8 6 8 13 0 8 4 7 11 -3 10 -15 10 -6 -6 80 -2 14 -2 32 1 41 4 14 9 15 34 6
19 -7 30 -18 30 -31z m-2199 -129 c-2 -83 -4 -163 -6 -177 -2 -14 -4 -63 -4
-109 -1 -46 -4 -82 -7 -78 -8 7 -6 301 3 430 3 53 8 95 11 92 3 -3 4 -74 3
-158z m1904 153 c3 -5 1 -10 -4 -10 -6 0 -11 5 -11 10 0 6 2 10 4 10 3 0 8 -4
11 -10z m-4515 -56 c0 -25 -27 1 -33 32 -4 25 -4 25 14 5 11 -11 19 -28 19
-37z m109 22 c0 -14 -2 -16 -6 -6 -3 8 -10 21 -16 28 -7 9 -6 11 7 6 9 -3 16
-16 15 -28z m4298 12 c-3 -8 -6 -5 -6 6 -1 11 2 17 5 13 3 -3 4 -12 1 -19z
m-4144 -10 c-5 -7 -10 -26 -12 -43 -2 -29 -2 -29 13 -10 18 24 21 7 5 -29 -13
-28 -39 -43 -39 -22 0 8 6 17 13 19 7 3 5 6 -6 6 -14 1 -16 7 -11 29 4 15 11
32 15 38 5 6 6 14 2 17 -3 4 2 7 12 7 12 0 15 -4 8 -12z m46 -10 c-16 -32 -17
-32 -15 -4 0 14 7 26 14 26 10 0 10 -5 1 -22z m2067 -70 c-2 -57 0 -84 5 -70
11 30 15 28 17 -15 2 -20 6 -41 9 -46 3 -6 2 -7 -4 -4 -6 4 -10 -5 -11 -21 0
-15 -1 -34 -2 -42 -1 -8 1 -44 5 -80 4 -36 6 -74 5 -85 -3 -19 -3 -48 1 -180
1 -33 1 -91 0 -130 -3 -95 -4 -92 24 -99 14 -4 34 -15 45 -26 21 -21 28 -70
10 -70 -5 0 -10 9 -10 19 0 51 -72 82 -153 67 -32 -6 -36 -11 -47 -56 -21 -86
2 -118 91 -130 47 -6 51 -4 100 44 32 31 38 24 12 -14 -30 -43 -39 -49 -90
-56 -41 -5 -51 -3 -56 10 -4 9 -14 16 -24 16 -9 0 -27 10 -40 22 -18 17 -23
32 -23 70 0 26 4 48 10 48 5 0 12 11 16 25 3 14 13 25 21 25 7 0 20 6 27 12
11 11 11 15 -3 25 -14 10 -13 11 6 7 20 -6 21 -3 17 44 -5 48 -5 49 18 45 19
-4 24 0 24 16 0 14 -4 17 -10 11 -13 -13 -26 -13 -26 1 0 14 26 40 33 33 3 -3
5 28 5 70 -1 42 -5 76 -10 76 -4 0 -8 -31 -8 -69 0 -39 -4 -72 -9 -75 -11 -7
-23 116 -16 168 3 24 0 45 -7 54 -11 13 -11 14 1 7 11 -6 13 -2 9 19 -3 14 -1
26 3 26 5 0 6 7 3 15 -4 9 0 15 10 15 11 0 16 9 16 28 0 15 3 55 5 89 4 59 3
61 -13 45 -10 -9 -14 -19 -9 -21 5 -2 3 -7 -4 -12 -10 -6 -11 -9 -1 -9 6 0 12
-7 12 -15 0 -21 -18 -19 -23 3 -4 14 -3 122 2 172 1 13 2 13 11 0 7 -12 10 -8
10 15 0 31 10 75 16 75 2 0 2 -42 0 -92z m-2411 13 c-7 -6 -35 27 -35 41 0 7
9 2 20 -12 10 -14 17 -26 15 -29z m242 27 c1 -13 4 -36 7 -53 l6 -30 -11 28
c-6 15 -14 25 -19 22 -13 -8 -21 27 -9 41 16 20 24 17 26 -8z m2205 -30 c-6
-41 -17 -34 -17 10 -1 28 2 36 10 29 6 -6 9 -23 7 -39z m51 32 c-3 -12 -8 -19
-11 -16 -5 6 5 36 12 36 2 0 2 -9 -1 -20z m2709 -46 c-4 -21 -13 -39 -20 -42
-7 -2 -10 2 -6 12 4 9 1 16 -6 16 -8 0 -10 -8 -7 -21 7 -25 -2 -51 -14 -43 -5
3 -9 0 -9 -5 0 -6 -5 -11 -11 -11 -8 0 -8 4 -2 13 15 19 24 49 13 42 -6 -3
-10 -1 -10 4 0 6 5 11 10 11 6 0 10 8 10 17 0 9 3 13 6 10 11 -11 44 13 44 31
0 15 -2 15 -10 2 -11 -17 -13 -9 -4 15 12 31 25 -9 16 -51z m-3065 9 c-3 -10
-5 -4 -5 12 0 17 2 24 5 18 2 -7 2 -21 0 -30z m450 15 c-3 -8 -6 -5 -6 6 -1
11 2 17 5 13 3 -3 4 -12 1 -19z m-2422 -28 c-12 -14 -16 -28 -12 -50 7 -33 0
-60 -15 -60 -5 0 -7 4 -3 9 3 5 -2 16 -10 24 -19 19 -19 27 -1 27 9 0 12 8 8
26 -3 16 -1 25 5 21 5 -3 16 3 23 13 8 11 16 17 19 15 2 -3 -4 -14 -14 -25z
m-65 -17 c0 -7 -4 -13 -10 -13 -5 0 -10 12 -10 28 0 21 2 24 10 12 5 -8 10
-21 10 -27z m5031 14 c-10 -9 -11 -8 -5 6 3 10 9 15 12 12 3 -3 0 -11 -7 -18z
m-99 -9 c-7 -7 -12 -8 -12 -2 0 14 12 26 19 19 2 -3 -1 -11 -7 -17z m-369 -8
c18 -22 21 -30 10 -30 -11 1 -46 50 -36 50 5 0 16 -9 26 -20z m414 -17 c1 -29
-1 -33 -9 -20 -7 14 -3 57 6 57 1 0 3 -17 3 -37z m-5063 14 c15 -11 16 -15 3
-25 -11 -10 -16 -7 -25 13 -13 28 -5 32 22 12z m2163 -9 c-3 -8 -6 -5 -6 6 -1
11 2 17 5 13 3 -3 4 -12 1 -19z m2378 1 c3 -9 3 -24 -1 -33 -4 -11 -1 -16 12
-16 9 0 15 -3 11 -6 -3 -3 -15 -3 -26 1 -15 4 -21 15 -21 36 0 17 -4 28 -9 24
-5 -3 -12 -1 -16 5 -4 6 4 9 19 8 15 -1 28 -10 31 -19z m-1783 -4 c0 -5 -5
-11 -11 -13 -6 -2 -11 4 -11 13 0 9 5 15 11 13 6 -2 11 -8 11 -13z m-2460 -17
c-7 -7 -12 -8 -12 -2 0 14 12 26 19 19 2 -3 -1 -11 -7 -17z m4128 -32 c0 -18
-17 8 -24 34 l-7 25 15 -25 c9 -14 15 -29 16 -34z m-4172 30 c-7 -8 -15 -12
-17 -11 -5 6 10 25 20 25 5 0 4 -6 -3 -14z m2237 4 c3 -5 1 -10 -4 -10 -6 0
-11 5 -11 10 0 6 2 10 4 10 3 0 8 -4 11 -10z m2502 -17 c-3 -3 -11 -2 -17 2
-9 6 -9 10 1 16 14 8 27 -7 16 -18z m-4951 1 c-3 -8 -2 -13 2 -11 4 3 15 -6
25 -19 17 -22 17 -23 0 -17 -26 10 -63 45 -57 55 10 15 36 9 30 -8z m299 6 c3
-5 1 -10 -4 -10 -6 0 -11 5 -11 10 0 6 2 10 4 10 3 0 8 -4 11 -10z m4159 -16
c4 -12 2 -12 -14 -4 -11 6 -20 15 -20 20 0 14 28 1 34 -16z m219 6 c28 0 11
-17 -23 -22 -23 -4 -30 -1 -30 12 0 23 12 32 24 20 5 -5 18 -10 29 -10z m224
-8 c-10 -10 -17 -31 -17 -46 0 -16 -7 -43 -16 -61 -22 -47 -15 -71 20 -68 28
2 27 1 -15 -30 -24 -17 -45 -35 -47 -39 -6 -12 -50 -9 -58 4 -5 8 0 9 14 6 12
-4 19 -2 16 3 -3 5 8 12 25 15 34 7 44 24 25 42 -12 10 -14 10 -14 -2 0 -10
-6 -13 -15 -10 -13 6 -13 8 2 23 10 9 19 25 21 36 2 18 1 18 -18 -4 -18 -21
-20 -21 -21 -5 -1 15 -2 14 -7 -4 -4 -13 -11 -23 -17 -23 -13 1 -17 101 -5
121 14 23 22 6 10 -25 -6 -15 -8 -30 -6 -33 10 -9 36 20 36 39 0 24 16 25 29
2 6 -10 11 -13 11 -6 0 6 -7 18 -15 26 -12 13 -13 17 0 27 8 6 18 9 23 6 5 -3
17 3 27 14 10 11 20 18 23 15 3 -3 -2 -13 -11 -23z m-127 -1 c-5 -11 -18 -22
-29 -26 -21 -6 -42 -73 -34 -105 7 -25 -5 -56 -16 -44 -14 15 -24 117 -11 109
7 -4 9 2 6 19 -3 19 1 27 17 32 12 5 30 7 40 5 10 -1 17 4 17 13 0 9 5 16 10
16 7 0 7 -6 0 -19z m253 -22 c5 -4 -2 -9 -16 -13 -14 -3 -29 -15 -32 -27 -5
-15 -10 -18 -18 -10 -12 12 6 61 23 61 5 0 10 8 10 18 1 15 2 14 12 -3 6 -11
15 -23 21 -26z m-4703 21 c0 -5 -5 -10 -11 -10 -5 0 -7 5 -4 10 3 6 8 10 11
10 2 0 4 -4 4 -10z m4285 -9 c-3 -12 0 -21 10 -25 8 -3 15 -11 15 -18 0 -9 -3
-8 -10 2 -9 13 -10 13 -10 0 -1 -9 -5 -6 -10 8 -5 12 -7 29 -4 37 9 22 16 18
9 -4z m339 -3 c-7 -11 -15 -64 -15 -101 0 -14 -3 -15 -13 -5 -17 18 -27 48
-16 48 6 0 10 9 10 20 0 21 19 49 33 50 5 0 5 -5 1 -12z m-4956 -22 c20 -14
61 -32 90 -41 28 -10 52 -18 52 -19 0 0 13 -73 29 -161 16 -88 32 -189 36
-225 29 -313 41 -408 68 -555 25 -131 56 -348 53 -372 -1 -13 -5 -26 -9 -29
-4 -4 -7 -12 -7 -18 0 -6 5 -4 11 4 8 11 9 6 5 -20 -4 -21 -3 -30 3 -22 11 18
29 -108 36 -249 2 -59 9 -119 15 -133 15 -42 33 -212 26 -251 l-7 -36 -47 33
c-26 18 -48 36 -50 41 -2 4 -10 7 -18 7 -8 0 -14 4 -14 10 0 5 -13 16 -30 25
-16 8 -37 32 -47 53 -9 20 -29 51 -44 67 -15 17 -41 46 -59 65 -17 19 -47 61
-67 93 -20 31 -37 57 -38 57 -2 0 -1 -10 3 -22 3 -14 2 -19 -6 -14 -7 4 -12
11 -12 16 0 5 -13 29 -30 53 -16 24 -34 56 -39 70 -6 15 -17 27 -26 27 -8 0
-15 3 -15 8 0 4 -10 19 -23 34 -13 15 -32 39 -43 54 -10 15 -26 34 -34 43 -8
9 -25 34 -38 56 l-22 40 23 -30 c12 -16 34 -42 50 -58 15 -16 27 -32 27 -35 1
-9 39 -59 40 -51 1 24 -79 137 -140 200 -85 85 -130 136 -130 146 0 5 -16 32
-35 62 -19 29 -35 56 -35 59 0 3 -14 21 -31 38 l-31 32 47 79 c27 43 66 112
88 153 22 41 44 77 48 78 5 2 9 12 9 23 0 10 4 19 8 19 5 0 16 16 25 35 19 39
22 59 7 35 -6 -9 -10 -10 -10 -3 0 7 9 17 20 23 11 6 20 17 20 25 0 8 6 15 14
15 8 0 15 16 19 41 3 23 10 45 15 48 11 7 20 25 91 167 30 60 68 130 83 156
16 25 28 50 27 55 -5 29 2 29 49 -1z m1905 4 c-3 -11 -7 -20 -9 -20 -2 0 -4 9
-4 20 0 11 4 20 9 20 5 0 7 -9 4 -20z m2637 -12 c0 -4 -7 -5 -15 -2 -8 4 -15
4 -15 1 0 -3 14 -10 30 -16 18 -6 28 -6 25 -1 -9 14 9 12 23 -2 7 -7 12 -32
11 -57 l-1 -46 -12 35 c-8 21 -21 37 -34 40 -16 4 -72 63 -72 76 0 1 14 -3 30
-9 17 -6 30 -15 30 -19z m-4369 -21 c3 -5 8 -8 10 -6 2 1 14 -1 27 -5 31 -10
19 -25 -15 -18 -23 4 -26 3 -16 -9 7 -9 9 -26 4 -49 l-8 -35 -7 36 c-4 20 -6
44 -4 54 2 13 -7 21 -30 29 -18 6 -30 14 -27 18 4 4 14 4 23 1 11 -5 13 -3 7
8 -7 11 -5 11 11 -1 10 -8 22 -19 25 -23z m37 8 c-3 -3 -9 2 -12 12 -6 14 -5
15 5 6 7 -7 10 -15 7 -18z m4284 -22 c26 -23 22 -35 -7 -21 -14 6 -25 17 -25
25 0 17 10 16 32 -4z m178 -4 c0 -5 -4 -9 -10 -9 -5 0 -10 7 -10 16 0 8 5 12
10 9 6 -3 10 -10 10 -16z m77 -31 c0 -47 -1 -49 -9 -23 -7 27 -4 75 6 75 2 0
4 -24 3 -52z m298 33 c-3 -6 -11 -11 -17 -11 -6 0 -6 6 2 15 14 17 26 13 15
-4z m45 -1 c-6 -11 -16 -20 -22 -20 -6 0 -3 9 7 20 10 11 20 20 22 20 2 0 -1
-9 -7 -20z m-2973 -122 c-2 -18 -4 -4 -4 32 0 36 2 50 4 33 2 -18 2 -48 0 -65z
m2430 86 c-4 -4 3 -15 14 -25 11 -9 16 -20 11 -23 -11 -7 -52 4 -52 14 0 18
13 40 23 40 6 0 7 -3 4 -6z m346 -14 c-6 -24 -23 -37 -23 -18 0 12 18 38 26
38 1 0 0 -9 -3 -20z m-2866 -22 c-3 -8 -6 -5 -6 6 -1 11 2 17 5 13 3 -3 4 -12
1 -19z m290 -20 c-3 -8 -6 -5 -6 6 -1 11 2 17 5 13 3 -3 4 -12 1 -19z m132
-33 c0 -63 -14 -81 -22 -29 -5 29 8 84 19 84 1 0 3 -25 3 -55z m352 18 c-8
-15 -10 -15 -11 -2 0 17 10 32 18 25 2 -3 -1 -13 -7 -23z m1941 -18 c-7 -24
-9 -26 -15 -12 -4 10 -1 24 6 32 16 18 18 14 9 -20z m-2865 -37 c-2 -13 -4 -3
-4 22 0 25 2 35 4 23 2 -13 2 -33 0 -45z m2781 46 c35 -17 50 -34 30 -34 -14
0 -78 37 -78 45 0 9 16 5 48 -11z m121 -17 c-9 -7 -18 -19 -22 -27 -4 -10 -6
-8 -6 7 -1 19 9 26 39 32 3 0 -2 -5 -11 -12z m-1982 -29 c-3 -7 -5 -2 -5 12 0
14 2 19 5 13 2 -7 2 -19 0 -25z m-257 -23 c0 -19 -4 -35 -9 -35 -5 0 -9 16 -8
35 1 19 5 35 9 35 4 0 8 -16 8 -35z m-423 -42 c-3 -10 -5 -2 -5 17 0 19 2 27
5 18 2 -10 2 -26 0 -35z m-81 -30 c-10 -11 -25 18 -18 35 4 13 8 11 15 -6 6
-12 7 -25 3 -29z m394 -103 l-6 -95 -2 110 c-1 61 2 103 6 95 4 -8 5 -58 2
-110z m241 84 c-5 -16 -10 -21 -10 -12 -1 18 10 51 15 45 2 -1 -1 -16 -5 -33z
m-551 22 c0 -3 -4 -8 -10 -11 -5 -3 -10 -1 -10 4 0 6 5 11 10 11 6 0 10 -2 10
-4z m456 -63 c-11 -11 -17 4 -9 23 7 18 8 18 11 1 2 -10 1 -21 -2 -24z m-702
-28 c-4 -8 -10 -15 -15 -15 -4 0 -6 7 -3 15 4 8 10 15 15 15 4 0 6 -7 3 -15z
m942 -24 c0 -17 -3 -28 -8 -25 -10 6 -11 38 -1 47 9 10 9 10 9 -22z m-776 -7
c0 -8 -4 -14 -9 -14 -6 0 -9 9 -8 19 1 22 17 18 17 -5z m457 -6 c-3 -8 -6 -5
-6 6 -1 11 2 17 5 13 3 -3 4 -12 1 -19z m290 0 c-3 -8 -6 -5 -6 6 -1 11 2 17
5 13 3 -3 4 -12 1 -19z m53 -38 c0 -5 -2 -10 -4 -10 -3 0 -8 5 -11 10 -3 6 -1
10 4 10 6 0 11 -4 11 -10z m-273 -22 c-3 -8 -6 -5 -6 6 -1 11 2 17 5 13 3 -3
4 -12 1 -19z m-671 -25 c-2 -16 -5 -30 -6 -33 -1 -3 -2 -8 -1 -12 0 -5 -3 -8
-9 -8 -16 0 -23 49 -10 65 19 23 31 18 26 -12z m100 12 c-1 -8 -5 -18 -9 -21
-12 -12 -8 -106 4 -98 8 4 8 1 1 -12 -9 -19 -9 -40 3 -84 5 -19 4 -22 -4 -10
-7 10 -11 11 -11 3 0 -9 -16 -13 -45 -13 -34 0 -45 4 -45 15 0 10 7 15 18 13
12 -2 18 4 19 22 1 14 5 35 9 48 4 14 2 22 -6 22 -8 0 -9 10 -5 29 3 16 2 46
-4 65 l-9 36 43 0 c32 0 43 -4 41 -15z m89 -4 c3 -5 1 -12 -5 -16 -5 -3 -10 1
-10 9 0 18 6 21 15 7z m192 -33 c-3 -8 -6 -5 -6 6 -1 11 2 17 5 13 3 -3 4 -12
1 -19z m406 -40 l-11 -33 -1 29 c-1 16 -4 26 -8 22 -12 -11 -13 -147 -2 -140
6 3 7 14 4 25 -4 11 -2 19 5 19 7 0 10 7 6 15 -3 8 -1 15 3 15 5 0 12 23 16
50 6 45 10 50 32 50 17 0 22 -4 17 -12 -6 -10 -4 -10 8 0 14 11 18 10 28 -5
11 -17 11 -17 6 0 -4 12 -2 17 6 14 12 -3 14 -28 9 -116 -2 -39 -14 -15 -16
31 -3 56 -4 56 -16 34 -9 -14 -8 -20 1 -26 9 -5 9 -9 1 -14 -6 -4 -11 -26 -11
-49 1 -33 3 -38 11 -24 21 35 28 15 23 -65 -3 -46 -6 -84 -8 -85 -1 -2 -24 0
-51 3 l-47 7 4 66 c3 36 3 58 1 49 -3 -10 -8 -18 -11 -18 -4 0 -6 -25 -5 -55
l2 -55 -30 0 c-18 0 -28 4 -24 10 3 6 8 72 11 148 4 112 8 139 21 150 26 19
38 -1 26 -40z m-432 9 c-10 -9 -11 -8 -5 6 3 10 9 15 12 12 3 -3 0 -11 -7 -18z
m240 0 c-10 -9 -11 -8 -5 6 3 10 9 15 12 12 3 -3 0 -11 -7 -18z m-84 -19 c-3
-8 -6 -5 -6 6 -1 11 2 17 5 13 3 -3 4 -12 1 -19z m-513 1 c-3 -6 -1 -15 6 -19
7 -4 9 -13 5 -21 -6 -9 -11 -6 -17 10 -7 21 -4 41 8 41 3 0 2 -5 -2 -11z
m-2321 -106 c-20 -44 -87 -154 -120 -199 -13 -17 -23 -36 -23 -42 0 -7 -5 -12
-11 -12 -13 0 40 97 87 159 19 24 34 47 34 52 0 9 40 79 46 79 2 0 -4 -17 -13
-37z m2346 -3 c0 -10 -3 -8 -9 5 -12 27 -12 43 0 25 5 -8 9 -22 9 -30z m-49
14 c0 -8 -4 -12 -10 -9 -5 3 -10 10 -10 16 0 5 5 9 10 9 6 0 10 -7 10 -16z
m-1623 -46 c-3 -7 -5 -2 -5 12 0 14 2 19 5 13 2 -7 2 -19 0 -25z m1627 -4 c3
-8 2 -12 -4 -9 -6 3 -10 10 -10 16 0 14 7 11 14 -7z m126 -25 c0 -5 6 -7 13
-3 9 6 9 5 0 -7 -6 -8 -10 -24 -8 -34 2 -11 4 -24 5 -30 1 -5 6 1 10 15 8 24
8 24 9 -7 l1 -32 -72 1 c-40 1 -80 -2 -89 -6 -14 -6 -16 0 -14 33 2 54 12 62
20 18 6 -32 9 -35 26 -24 20 12 26 37 9 37 -14 0 -12 37 3 43 23 10 87 7 87
-4z m-101 -52 c1 -5 -3 -5 -9 -2 -5 3 -10 16 -9 28 0 21 1 21 9 2 5 -11 9 -24
9 -28z m541 -92 c0 -14 -2 -25 -4 -25 -2 0 -6 11 -8 25 -3 14 -1 25 3 25 5 0
9 -11 9 -25z m-457 5 c9 0 17 -4 17 -10 0 -13 -107 -13 -115 -1 -6 11 31 20
60 15 11 -2 28 -4 38 -4z m765 3 c-15 -2 -42 -2 -60 0 -18 2 -6 4 27 4 33 0
48 -2 33 -4z m-372 -123 c1 -131 9 -180 30 -180 8 0 14 6 14 13 0 8 4 7 10 -3
14 -22 12 -43 -2 -34 -7 5 -27 7 -45 5 -18 -1 -46 0 -62 4 -27 6 -28 7 -25 65
2 33 8 68 14 79 13 26 13 81 -1 81 -7 0 -9 -12 -7 -30 3 -17 1 -33 -4 -36 -5
-3 -8 14 -7 38 1 23 0 48 -1 53 -1 6 -1 21 0 35 2 18 4 20 7 8 2 -10 9 -18 15
-18 6 0 8 9 5 21 -5 18 -1 20 26 17 l32 -3 1 -115z m68 36 c-3 -15 -8 -25 -11
-23 -2 3 -1 17 3 31 3 15 8 25 11 23 2 -3 1 -17 -3 -31z m-2965 -33 c12 -14
24 -37 27 -50 4 -12 10 -23 14 -23 4 0 11 -8 14 -17 6 -15 4 -15 -14 2 -11 10
-20 21 -20 25 0 4 -18 27 -40 51 -22 24 -40 48 -40 52 0 13 37 -12 59 -40z
m2794 -14 c-4 -15 -9 -17 -17 -9 -8 8 -7 13 4 20 8 5 16 10 17 10 0 0 -1 -9
-4 -21z m-2863 -19 c8 -5 11 -10 5 -10 -5 0 -17 5 -25 10 -8 5 -10 10 -5 10 6
0 17 -5 25 -10z m897 -22 c-3 -8 -6 -5 -6 6 -1 11 2 17 5 13 3 -3 4 -12 1 -19z
m1962 -26 c-5 -2 -6 -8 -3 -13 3 -5 8 -31 10 -57 l4 -48 -35 -2 c-31 -2 -35 0
-32 20 2 12 9 24 16 26 6 2 11 0 10 -5 -3 -18 2 -33 11 -33 14 0 12 84 -2 99
-10 11 -10 14 0 18 6 3 12 12 13 21 0 13 2 13 8 -3 5 -11 4 -22 0 -23z m228
-14 c-3 -7 -5 -2 -5 12 0 14 2 19 5 13 2 -7 2 -19 0 -25z m-3062 12 c3 -6 -1
-7 -9 -4 -18 7 -21 14 -7 14 6 0 13 -4 16 -10z m2806 -20 c5 0 9 -5 9 -12 0
-9 -3 -9 -12 0 -7 7 -17 8 -28 2 -12 -6 -17 -5 -17 5 0 7 6 11 14 8 8 -3 13 2
14 13 1 17 2 17 6 2 2 -10 9 -18 14 -18z m-1924 -2 c-3 -8 -6 -5 -6 6 -1 11 2
17 5 13 3 -3 4 -12 1 -19z m13 -50 c0 -5 -4 -8 -10 -8 -5 0 -10 10 -10 23 0
18 2 19 10 7 5 -8 10 -18 10 -22z m4660 -22 c0 -6 16 -45 35 -85 20 -41 33
-76 30 -79 -3 -3 -5 1 -6 9 0 8 -4 6 -9 -6 l-9 -20 -1 20 c-2 11 -2 23 -1 28
0 4 -3 7 -8 7 -4 0 -16 26 -26 58 -10 31 -22 68 -27 81 -7 21 -7 22 7 11 8 -7
15 -18 15 -24z m-2807 4 c-3 -12 -8 -19 -11 -16 -5 6 5 36 12 36 2 0 2 -9 -1
-20z m-2727 -17 c34 -22 29 -26 -8 -7 -19 10 -44 14 -65 11 -31 -5 -42 1 -26
17 11 10 71 -2 99 -21z m878 -20 c-5 -17 -3 -24 4 -20 13 9 21 -76 11 -118 -6
-25 -7 -21 -9 25 -3 52 -4 61 -10 85 -7 24 -5 63 2 59 5 -3 5 -17 2 -31z
m2163 -5 c-3 -7 -5 -2 -5 12 0 14 2 19 5 13 2 -7 2 -19 0 -25z m-122 -44 c1
-21 -3 -22 -73 -22 -68 0 -72 1 -52 15 26 18 66 30 99 29 17 -1 25 -7 26 -22z
m35 12 c0 -3 -4 -8 -10 -11 -5 -3 -10 -1 -10 4 0 6 5 11 10 11 6 0 10 -2 10
-4z m95 -36 c3 -5 -1 -10 -10 -10 -9 0 -13 5 -10 10 3 6 8 10 10 10 2 0 7 -4
10 -10z m-246 -107 c0 -27 -3 -41 -6 -33 -8 20 -29 40 -36 34 -2 -3 -7 2 -10
10 -7 18 8 30 29 22 9 -3 12 -1 9 4 -3 6 -1 10 4 10 6 0 11 -20 10 -47z m61
31 c0 -8 -4 -12 -10 -9 -5 3 -10 10 -10 16 0 5 5 9 10 9 6 0 10 -7 10 -16z
m60 7 c0 -6 -4 -13 -10 -16 -5 -3 -10 1 -10 9 0 9 5 16 10 16 6 0 10 -4 10 -9z
m-70 -61 c0 -11 -4 -20 -10 -20 -5 0 -10 9 -10 20 0 11 5 20 10 20 6 0 10 -9
10 -20z m-103 -22 c-3 -8 -6 -5 -6 6 -1 11 2 17 5 13 3 -3 4 -12 1 -19z m163
2 c0 -5 -5 -10 -11 -10 -5 0 -7 5 -4 10 3 6 8 10 11 10 2 0 4 -4 4 -10z m-60
-40 c0 -5 -4 -10 -10 -10 -5 0 -10 5 -10 10 0 6 5 10 10 10 6 0 10 -4 10 -10z
m60 -20 c0 -5 -5 -10 -11 -10 -5 0 -7 5 -4 10 3 6 8 10 11 10 2 0 4 -4 4 -10z
m-60 -45 c0 -8 -4 -15 -10 -15 -5 0 -10 7 -10 15 0 8 5 15 10 15 6 0 10 -7 10
-15z m55 -25 c3 -5 1 -10 -4 -10 -6 0 -11 5 -11 10 0 6 2 10 4 10 3 0 8 -4 11
-10z m-155 -4 c0 -3 -4 -8 -10 -11 -5 -3 -10 -1 -10 4 0 6 5 11 10 11 6 0 10
-2 10 -4z m100 -56 c0 -11 -2 -20 -4 -20 -2 0 -6 9 -9 20 -3 11 -1 20 4 20 5
0 9 -9 9 -20z m100 13 c0 -5 -5 -15 -10 -23 -8 -12 -10 -11 -10 8 0 12 5 22
10 22 6 0 10 -3 10 -7z m-124 -58 c17 -17 36 -25 59 -25 19 0 37 -4 40 -10 4
-6 -1 -7 -12 -3 -10 3 -15 3 -11 -2 4 -4 0 -14 -8 -22 -8 -8 -12 -19 -9 -24 4
-5 -1 -9 -9 -9 -9 0 -16 -5 -16 -11 0 -5 5 -7 12 -3 8 5 9 2 5 -9 -3 -10 -3
-17 2 -17 4 0 6 -11 3 -25 -2 -15 0 -25 7 -25 6 0 11 -7 11 -15 0 -8 4 -15 9
-15 4 0 6 -23 3 -51 -4 -40 -2 -50 8 -44 9 6 10 3 1 -13 -9 -18 -8 -20 13 -18
l24 3 -19 -33 c-10 -19 -17 -39 -15 -46 1 -7 1 -10 -1 -6 -3 4 -21 10 -41 14
-20 4 -42 11 -49 16 -7 5 -14 5 -17 -1 -4 -5 -16 -9 -27 -8 -15 1 -19 6 -15
22 3 11 6 25 6 30 0 6 7 -1 15 -15 11 -19 14 -21 15 -7 0 24 16 21 36 -5 12
-17 15 -18 10 -5 -3 10 -6 23 -6 28 0 5 -7 9 -16 9 -11 0 -14 4 -7 13 5 6 8
23 8 37 -1 14 -4 64 -6 112 -2 47 -7 84 -11 82 -4 -2 -7 8 -7 23 0 45 -5 67
-18 80 -6 7 -8 23 -5 35 5 19 7 20 10 5 2 -10 15 -29 28 -42z m95 -8 c-10 -9
-11 -8 -5 6 3 10 9 15 12 12 3 -3 0 -11 -7 -18z m-184 -79 c-3 -7 -5 -2 -5 12
0 14 2 19 5 13 2 -7 2 -19 0 -25z m60 -30 c-3 -7 -5 -2 -5 12 0 14 2 19 5 13
2 -7 2 -19 0 -25z m3048 2 c-28 -12 -37 -12 -30 0 3 6 16 10 28 9 21 0 21 -1
2 -9z m-2922 -50 c-7 -28 -13 -25 -13 6 0 14 4 23 9 20 5 -3 7 -15 4 -26z
m-2264 -53 c12 -15 12 -17 -3 -11 -9 3 -16 13 -16 22 0 8 1 13 3 11 1 -2 9
-12 16 -22z m2141 3 c0 -5 -4 -10 -10 -10 -5 0 -10 5 -10 10 0 6 5 10 10 10 6
0 10 -4 10 -10z m18 -41 c-1 -17 -4 -25 -8 -18 -7 10 -2 49 5 49 2 0 3 -14 3
-31z m-18 17 c0 -2 -6 -9 -13 -15 -10 -8 -14 -7 -14 4 0 8 6 15 14 15 7 0 13
-2 13 -4z m-5 -75 c3 -5 1 -12 -5 -16 -5 -3 -10 1 -10 9 0 18 6 21 15 7z m-25
-97 l25 -11 -23 -12 c-19 -10 -22 -9 -23 6 0 16 -1 16 -9 -2 -7 -16 -9 -14 -9
15 0 19 3 30 7 25 4 -6 18 -15 32 -21z m204 1 c-4 -17 -2 -25 7 -25 7 0 10 -3
6 -6 -3 -3 -15 -3 -26 1 -17 5 -19 9 -9 31 15 31 30 31 22 -1z m56 -89 c0 -3
-4 -8 -10 -11 -5 -3 -10 -1 -10 4 0 6 5 11 10 11 6 0 10 -2 10 -4z m-150 -75
c0 -11 3 -27 7 -37 6 -15 3 -15 -17 3 -12 12 -27 20 -32 17 -4 -3 -8 0 -8 6 0
7 7 10 15 6 9 -3 15 0 15 9 0 8 5 15 10 15 6 0 10 -9 10 -19z m-30 -91 c0 -5
-4 -10 -10 -10 -5 0 -10 5 -10 10 0 6 5 10 10 10 6 0 10 -4 10 -10z m51 -53
c-14 -14 -15 -30 -1 -22 6 3 8 -16 7 -49 -2 -30 -1 -53 2 -51 4 2 7 -13 8 -33
1 -29 0 -33 -7 -17 -6 14 -9 16 -9 5 -1 -9 4 -21 11 -28 9 -9 9 -12 -1 -12
-11 0 -11 -3 -1 -15 9 -11 11 -72 7 -252 -3 -131 -7 -247 -10 -258 -3 -11 -6
-46 -6 -77 -1 -51 -3 -58 -21 -58 -15 0 -20 -7 -20 -29 0 -42 -22 -57 -61 -41
-21 9 -27 16 -20 23 6 6 11 23 11 38 0 16 7 29 18 34 16 6 16 7 -2 17 -19 11
-19 11 -1 24 10 8 16 17 12 20 -4 4 1 13 11 20 16 12 16 14 -1 31 -10 10 -17
14 -16 8 3 -19 -1 -26 -12 -20 -7 5 -6 12 4 23 19 23 27 61 32 167 3 50 7 102
10 118 2 15 1 27 -3 27 -13 0 -8 73 6 77 6 3 12 18 12 34 0 16 6 29 13 30 10
0 10 2 0 6 -7 2 -13 13 -13 23 0 10 6 21 13 23 9 4 8 8 -3 16 -10 7 -11 11 -2
11 6 0 12 7 12 15 0 8 -6 15 -12 15 -10 0 -10 2 0 9 10 6 10 10 -2 21 -9 7
-13 16 -10 21 3 5 1 9 -5 9 -5 0 -12 -26 -14 -57 -2 -32 -3 -19 -3 29 1 85 4
93 34 89 6 -1 13 7 13 19 1 11 3 25 4 30 1 6 3 16 4 23 1 7 6 4 12 -6 8 -14 8
-22 0 -30z m-51 9 c0 -8 -4 -17 -9 -21 -6 -3 -9 4 -8 15 1 23 17 28 17 6z
m-123 -18 c-3 -8 -6 -5 -6 6 -1 11 2 17 5 13 3 -3 4 -12 1 -19z m230 -35 c-3
-10 -5 -4 -5 12 0 17 2 24 5 18 2 -7 2 -21 0 -30z m-189 -69 l-3 -39 -5 47
c-3 26 -1 43 3 39 5 -5 7 -26 5 -47z m73 -167 c-13 -13 -15 1 -4 30 7 17 8 17
11 -1 2 -10 -1 -23 -7 -29z m96 -119 c-3 -8 -6 -5 -6 6 -1 11 2 17 5 13 3 -3
4 -12 1 -19z m23 -188 c0 -5 -4 -10 -10 -10 -5 0 -10 5 -10 10 0 6 5 10 10 10
6 0 10 -4 10 -10z m-160 -26 c0 -8 -5 -12 -10 -9 -6 4 -8 11 -5 16 9 14 15 11
15 -7z m3 -44 c-3 -12 -8 -19 -11 -16 -5 6 5 36 12 36 2 0 2 -9 -1 -20z m132
-121 c-4 -11 -3 -25 2 -32 15 -19 4 -107 -13 -107 -15 0 -21 70 -7 84 4 4 6
25 4 48 -2 28 1 38 9 33 6 -4 8 -16 5 -26z m-1610 -29 c-5 -17 -10 -19 -18
-11 -9 9 -8 14 2 20 8 5 10 14 6 22 -6 11 -5 11 5 3 7 -7 9 -21 5 -34z m65 20
c0 -5 -9 -10 -20 -10 -11 0 -20 5 -20 10 0 6 9 10 20 10 11 0 20 -4 20 -10z
m1607 -12 c-3 -8 -6 -5 -6 6 -1 11 2 17 5 13 3 -3 4 -12 1 -19z m30 -73 c-1
-29 -6 -45 -14 -45 -7 0 -13 -4 -13 -10 0 -5 -5 -10 -12 -10 -6 0 -4 7 5 18
20 22 22 38 5 45 -7 3 -4 6 7 6 15 1 17 3 6 10 -7 5 -10 14 -7 20 15 24 25 9
23 -34z m-1267 -29 c0 -3 -4 -8 -10 -11 -5 -3 -10 -1 -10 4 0 6 5 11 10 11 6
0 10 -2 10 -4z m-47 -13 c-7 -2 -21 -2 -30 0 -10 3 -4 5 12 5 17 0 24 -2 18
-5z m-430 -28 c-3 -9 -8 -14 -10 -11 -3 3 -2 9 2 15 9 16 15 13 8 -4z m667
-24 c0 -5 -9 -11 -20 -14 -20 -5 -26 3 -13 16 9 10 33 8 33 -2z m30 5 c0 -3
-4 -8 -10 -11 -5 -3 -10 -1 -10 4 0 6 5 11 10 11 6 0 10 -2 10 -4z m-540 -31
c0 -17 -22 -30 -67 -40 -43 -9 -36 15 10 37 42 20 57 21 57 3z m1365 5 c3 -6
-4 -10 -17 -10 -18 0 -20 2 -8 10 19 12 18 12 25 0z m165 4 c0 -3 -5 -14 -10
-25 -10 -17 -13 -18 -25 -5 -22 22 -18 36 10 36 14 0 25 -3 25 -6z m-117 -19
c-3 -9 -8 -14 -10 -11 -3 3 -2 9 2 15 9 16 15 13 8 -4z m221 0 c3 -8 1 -15 -4
-15 -6 0 -10 7 -10 15 0 8 2 15 4 15 2 0 6 -7 10 -15z m1446 5 c0 -5 -4 -10
-10 -10 -5 0 -10 5 -10 10 0 6 5 10 10 10 6 0 10 -4 10 -10z m-2740 -15 c0
-11 -11 -15 -42 -14 l-43 0 35 13 c47 18 50 18 50 1z m450 5 c0 -5 -7 -7 -15
-4 -8 4 -15 8 -15 10 0 2 7 4 15 4 8 0 15 -4 15 -10z m334 -34 c-3 -14 -10
-29 -15 -32 -5 -3 -4 7 1 22 6 15 8 35 5 43 -5 12 -3 13 5 5 6 -6 8 -22 4 -38z
m86 3 c0 -11 -27 -12 -34 0 -3 4 -3 11 0 14 8 8 34 -3 34 -14z m-1140 -2 c0
-5 5 -5 13 1 7 6 19 7 26 3 9 -6 6 -10 -11 -14 -48 -13 -83 -5 -63 15 9 8 35
5 35 -5z m616 -15 c-10 -2 -22 0 -28 6 -6 6 0 7 19 4 21 -5 23 -7 9 -10z m572
-18 c-3 -50 -18 -54 -18 -5 0 23 5 41 10 41 6 0 10 -16 8 -36z m65 29 c-7 -2
-19 -2 -25 0 -7 3 -2 5 12 5 14 0 19 -2 13 -5z m77 -3 c0 -5 -2 -10 -4 -10 -3
0 -8 5 -11 10 -3 6 -1 10 4 10 6 0 11 -4 11 -10z m-1050 -10 c0 -5 -4 -10 -10
-10 -5 0 -10 5 -10 10 0 6 5 10 10 10 6 0 10 -4 10 -10z m60 6 c0 -2 -7 -6
-15 -10 -8 -3 -15 -1 -15 4 0 6 7 10 15 10 8 0 15 -2 15 -4z m1095 -193 c-4
-109 -9 -200 -12 -203 -5 -6 -1 294 5 358 2 23 6 42 9 42 3 0 2 -89 -2 -197z
m220 45 c-3 -83 -8 -154 -10 -157 -7 -7 -6 241 1 278 4 17 8 31 10 31 2 0 2
-68 -1 -152z m1025 142 c0 -5 -7 -10 -16 -10 -8 0 -12 5 -9 10 3 6 10 10 16
10 5 0 9 -4 9 -10z m315 0 c-3 -5 -13 -10 -21 -10 -8 0 -12 5 -9 10 3 6 13 10
21 10 8 0 12 -4 9 -10z m-2485 -22 c-25 -9 -36 -5 -26 10 3 6 16 8 28 4 l22
-5 -24 -9z m1010 3 c0 -4 -15 -5 -32 -2 -32 4 -32 5 -8 11 26 7 40 4 40 -9z
m80 -7 c0 -13 -5 -24 -11 -24 -5 0 -7 5 -4 10 3 6 -1 10 -9 10 -12 0 -16 -10
-16 -35 0 -19 -4 -35 -10 -35 -13 0 -13 55 -1 78 5 10 19 18 30 19 16 1 21 -4
21 -23z m-1225 6 c-3 -5 -18 -9 -33 -9 l-27 1 30 8 c17 4 31 8 33 9 2 0 0 -3
-3 -9z m2100 1 c3 -6 -4 -9 -15 -8 -11 1 -20 5 -20 9 0 11 28 10 35 -1z
m-2795 -15 c0 -8 -9 -24 -20 -37 -17 -19 -19 -20 -11 -4 5 11 12 28 15 38 6
20 16 23 16 3z m753 -2 c-6 -18 -19 -18 -26 -1 -3 7 3 13 14 14 12 1 16 -3 12
-13z m1990 9 c-7 -2 -19 -2 -25 0 -7 3 -2 5 12 5 14 0 19 -2 13 -5z m-2563
-13 c0 -5 10 -10 23 -11 20 0 19 -2 -6 -11 -20 -7 -32 -7 -42 2 -21 17 -19 30
5 30 11 0 20 -4 20 -10z m1185 -17 c-4 -16 -7 -32 -6 -38 5 -38 5 -235 0 -235
-14 0 -19 35 -19 135 0 112 7 165 22 165 6 0 7 -11 3 -27z m182 5 c-3 -8 -6
-5 -6 6 -1 11 2 17 5 13 3 -3 4 -12 1 -19z m1040 0 c-3 -8 -6 -5 -6 6 -1 11 2
17 5 13 3 -3 4 -12 1 -19z m-1687 -14 c0 -2 -7 -4 -15 -4 -8 0 -15 4 -15 10 0
5 7 7 15 4 8 -4 15 -8 15 -10z m744 -204 c-5 -119 -10 -166 -15 -145 -12 42 1
376 13 344 6 -14 6 -99 2 -199z m925 216 c-12 -10 -60 -16 -54 -6 3 5 18 10
32 10 15 0 24 -2 22 -4z m-2261 -39 c2 -10 -3 -17 -12 -17 -10 0 -16 9 -16 21
0 24 23 21 28 -4z m277 12 c12 -18 0 -20 -41 -5 l-39 15 37 0 c20 1 40 -4 43
-10z m163 4 c-10 -2 -26 -2 -35 0 -10 3 -2 5 17 5 19 0 27 -2 18 -5z m202 -7
c0 -7 -12 -18 -27 -24 -39 -15 -113 -21 -113 -10 0 6 7 8 15 4 8 -3 15 -1 15
5 0 6 7 9 15 5 8 -3 20 1 27 8 7 7 18 11 25 9 6 -2 14 1 18 6 9 16 25 13 25
-3z m547 -18 c-3 -7 -5 -2 -5 12 0 14 2 19 5 13 2 -7 2 -19 0 -25z m620 26
c-3 -3 -12 -4 -19 -1 -8 3 -5 6 6 6 11 1 17 -2 13 -5z m483 -4 c0 -5 -19 -9
-42 -9 -40 1 -41 2 -13 9 44 11 55 11 55 0z m53 3 c-7 -2 -19 -2 -25 0 -7 3
-2 5 12 5 14 0 19 -2 13 -5z m337 2 c0 -17 -40 -44 -72 -50 -51 -10 -49 8 2
24 21 6 42 16 45 21 7 11 25 14 25 5z m-2350 -25 c0 -5 -4 -10 -10 -10 -5 0
-10 5 -10 10 0 6 5 10 10 10 6 0 10 -4 10 -10z m1050 0 c0 -5 -4 -10 -10 -10
-5 0 -10 5 -10 10 0 6 5 10 10 10 6 0 10 -4 10 -10z m813 3 c-7 -2 -19 -2 -25
0 -7 3 -2 5 12 5 14 0 19 -2 13 -5z m264 -7 c-3 -8 -1 -17 6 -19 7 -2 1 -5
-13 -5 -14 0 -36 -2 -50 -5 -14 -2 -17 -2 -7 0 9 2 17 10 17 18 0 12 15 20 44
24 4 0 6 -5 3 -13z m-2587 -1 c0 -8 -71 -38 -77 -31 -3 3 9 12 28 20 36 16 49
19 49 11z m875 -17 c-1 -17 -9 -23 -33 -25 -26 -3 -31 -1 -26 12 4 9 12 14 20
11 7 -3 18 2 24 10 16 18 17 18 15 -8z m58 -3 c-7 -21 -13 -19 -13 6 0 11 4
18 10 14 5 -3 7 -12 3 -20z m1567 15 c0 -5 -2 -10 -4 -10 -3 0 -8 5 -11 10 -3
6 -1 10 4 10 6 0 11 -4 11 -10z m170 6 c0 -3 -4 -8 -10 -11 -5 -3 -10 -1 -10
4 0 6 5 11 10 11 6 0 10 -2 10 -4z m527 -28 c-3 -7 -5 -2 -5 12 0 14 2 19 5
13 2 -7 2 -19 0 -25z m-2637 12 c0 -5 -4 -10 -10 -10 -5 0 -10 5 -10 10 0 6 5
10 10 10 6 0 10 -4 10 -10z m1364 -22 c5 -24 3 -28 -14 -28 -14 0 -20 7 -20
24 0 13 6 26 13 29 15 5 13 8 21 -25z m76 16 c0 -8 -5 -12 -10 -9 -6 4 -8 11
-5 16 9 14 15 11 15 -7z m-1220 -17 c0 -11 -1 -18 -3 -16 -1 2 -8 11 -15 20
-9 13 -9 16 3 16 8 0 15 -9 15 -20z m-530 -24 c0 -10 -9 -13 -31 -9 -31 5 -53
16 -31 16 7 0 12 7 12 15 0 12 4 13 25 3 14 -6 25 -18 25 -25z m50 27 c0 -5
-2 -10 -4 -10 -3 0 -8 5 -11 10 -3 6 -1 10 4 10 6 0 11 -4 11 -10z m2110 0 c0
-5 -10 -10 -22 -9 -22 0 -22 1 -3 9 11 5 21 9 23 9 1 1 2 -3 2 -9z m57 4 c-3
-3 -12 -4 -19 -1 -8 3 -5 6 6 6 11 1 17 -2 13 -5z m550 0 c-3 -3 -12 -4 -19
-1 -8 3 -5 6 6 6 11 1 17 -2 13 -5z m-1698 -91 c-2 -87 -2 -88 -9 -28 -6 55
-3 115 6 115 2 0 3 -39 3 -87z m1595 72 c-10 -8 -26 -14 -34 -15 -8 0 -4 6 10
14 34 19 48 20 24 1z m-1225 -207 c-1 -117 -5 -195 -8 -173 -7 44 -3 385 4
385 3 0 4 -96 4 -212z m-1909 192 c0 -5 -6 -10 -14 -10 -8 0 -16 -4 -18 -9 -1
-4 -14 -12 -28 -16 l-25 -8 28 27 c28 26 57 34 57 16z m540 0 c12 -8 9 -10
-12 -10 -16 0 -28 5 -28 10 0 13 20 13 40 0z m90 -13 c0 -11 -1 -18 -3 -16 -1
2 -8 11 -15 20 -9 13 -9 16 3 16 8 0 15 -9 15 -20z m287 17 c-3 -3 -12 -4 -19
-1 -8 3 -5 6 6 6 11 1 17 -2 13 -5z m2008 -4 c-3 -5 -13 -10 -21 -10 -8 0 -14
-7 -14 -15 0 -22 -17 -18 -23 4 -4 16 1 21 27 24 17 2 32 5 34 5 2 1 0 -2 -3
-8z m-2655 -15 c0 -8 -4 -15 -10 -15 -5 0 -10 7 -10 15 0 8 5 15 10 15 6 0 10
-7 10 -15z m320 -6 c0 -5 -7 -9 -15 -9 -8 0 -15 7 -15 15 0 9 6 12 15 9 8 -4
15 -10 15 -15z m90 1 c9 -16 8 -20 -5 -20 -8 0 -15 9 -15 20 0 11 2 20 5 20 2
0 9 -9 15 -20z m388 -5 c-12 -27 -31 -28 -36 -2 -2 10 5 17 20 20 13 2 24 5
25 6 2 0 -3 -10 -9 -24z m2262 7 c0 -12 -9 -18 -27 -20 l-26 -2 23 20 c28 24
30 25 30 2z m-2326 -7 c3 -9 0 -15 -9 -15 -8 0 -15 7 -15 15 0 8 4 15 9 15 5
0 11 -7 15 -15z m193 -32 c-3 -10 -5 -2 -5 17 0 19 2 27 5 18 2 -10 2 -26 0
-35z m273 18 c0 -17 -4 -33 -10 -36 -6 -4 -10 8 -10 29 0 20 5 36 10 36 6 0
10 -13 10 -29z m152 -1 c3 -16 1 -30 -4 -30 -4 0 -8 14 -8 30 0 17 2 30 4 30
2 0 6 -13 8 -30z m1158 20 c0 -5 -9 -10 -21 -10 -11 0 -17 5 -14 10 3 6 13 10
21 10 8 0 14 -4 14 -10z m597 -27 c-3 -10 -5 -4 -5 12 0 17 2 24 5 18 2 -7 2
-21 0 -30z m40 5 c-3 -7 -5 -2 -5 12 0 14 2 19 5 13 2 -7 2 -19 0 -25z m-2257
-9 c0 -6 -4 -7 -10 -4 -5 3 -10 11 -10 16 0 6 5 7 10 4 6 -3 10 -11 10 -16z
m985 11 c-3 -5 -14 -10 -23 -9 -14 0 -13 2 3 9 27 11 27 11 20 0z m-1975 -9
c0 -10 -78 -26 -87 -18 -2 3 15 10 39 15 23 5 44 10 46 11 1 1 2 -3 2 -8z
m240 -7 c0 -2 -9 -4 -20 -4 -11 0 -20 4 -20 9 0 5 9 7 20 4 11 -3 20 -7 20 -9z
m333 9 c-7 -2 -21 -2 -30 0 -10 3 -4 5 12 5 17 0 24 -2 18 -5z m507 -3 c0 -5
-5 -10 -11 -10 -5 0 -7 5 -4 10 3 6 8 10 11 10 2 0 4 -4 4 -10z m1570 0 c-8
-5 -42 -9 -75 -9 -49 1 -53 3 -25 8 63 11 117 12 100 1z m-515 -9 c-16 -15
-65 -25 -65 -13 0 6 10 13 23 15 41 8 51 7 42 -2z m62 3 c-3 -3 -12 -4 -19 -1
-8 3 -5 6 6 6 11 1 17 -2 13 -5z m273 2 c0 -2 -7 -7 -16 -10 -8 -3 -12 -2 -9
4 6 10 25 14 25 6z m695 -14 c-11 -2 -24 -8 -29 -13 -14 -13 -29 -11 -21 2 10
15 48 28 60 21 6 -4 1 -8 -10 -10z m-3085 4 c0 -10 -93 -46 -117 -46 -25 1
-22 4 22 25 43 22 95 33 95 21z m1960 -6 c0 -5 -2 -10 -4 -10 -3 0 -8 5 -11
10 -3 6 -1 10 4 10 6 0 11 -4 11 -10z m200 0 c-20 -13 -33 -13 -25 0 3 6 14
10 23 10 15 0 15 -2 2 -10z m620 -10 c0 -5 -5 -10 -11 -10 -5 0 -7 5 -4 10 3
6 8 10 11 10 2 0 4 -4 4 -10z m185 -10 c-40 -26 -65 -26 -35 0 13 11 32 20 44
20 18 0 17 -3 -9 -20z m-2384 -17 c-8 -15 -10 -15 -11 -2 0 17 10 32 18 25 2
-3 -1 -13 -7 -23z m74 16 c-7 -11 -35 -12 -35 -1 0 4 9 8 20 9 11 1 18 -2 15
-8z m1053 -20 c-3 -8 -7 -3 -11 10 -4 17 -3 21 5 13 5 -5 8 -16 6 -23z m179
13 c9 -6 7 -11 -7 -20 -17 -11 -20 -10 -20 8 0 21 7 25 27 12z m129 -7 c19
-14 19 -14 -2 -15 -12 0 -24 7 -28 15 -7 19 5 19 30 0z m261 9 c-3 -3 -12 -4
-19 -1 -8 3 -5 6 6 6 11 1 17 -2 13 -5z m445 -26 c-7 -7 -10 -5 -7 8 5 29 6
30 12 16 3 -8 1 -18 -5 -24z m-2023 -2 c-3 -3 -25 -8 -49 -12 -39 -6 -42 -6
-29 8 8 9 22 14 31 13 10 -2 20 1 24 6 4 7 10 7 17 0 6 -6 9 -13 6 -15z m101
3 c0 -6 -4 -7 -10 -4 -5 3 -10 11 -10 16 0 6 5 7 10 4 6 -3 10 -11 10 -16z
m-305 1 c-7 -12 -42 -12 -70 0 -15 6 -8 9 28 9 30 1 46 -3 42 -9z m511 -16
c-4 -9 -9 -15 -11 -12 -3 3 -3 13 1 22 4 9 9 15 11 12 3 -3 3 -13 -1 -22z
m1453 22 c-2 -2 -14 -9 -26 -15 -19 -10 -23 -9 -23 4 0 10 9 15 27 15 14 0 24
-2 22 -4z m236 -6 c-3 -5 -14 -10 -23 -10 -15 0 -15 2 -2 10 20 13 33 13 25 0z
m-1935 -10 c0 -5 -3 -10 -7 -10 -5 0 -19 -3 -33 -6 l-25 -6 25 15 c31 18 40
20 40 7z m1620 -4 c0 -8 -8 -15 -17 -14 -10 0 -51 -3 -92 -6 -81 -6 -87 9 -7
18 26 2 51 7 54 10 12 13 62 6 62 -8z m120 4 c-8 -5 -22 -10 -30 -10 -13 0
-13 1 0 10 8 5 22 10 30 10 13 0 13 -1 0 -10z m-2830 -16 c0 -7 -10 -9 -25 -6
-14 2 -22 8 -20 13 8 12 45 7 45 -7z m1537 -6 c-3 -8 -6 -5 -6 6 -1 11 2 17 5
13 3 -3 4 -12 1 -19z m-853 6 c20 -8 21 -34 2 -34 -7 0 -16 9 -19 20 -6 22 -5
23 17 14z m246 -4 c0 -5 -7 -10 -15 -10 -8 0 -15 5 -15 10 0 6 7 10 15 10 8 0
15 -4 15 -10z m-750 -21 c0 -5 -9 -9 -20 -9 -22 0 -27 16 -7 23 15 5 27 -1 27
-14z m837 15 c-3 -3 -12 -4 -19 -1 -8 3 -5 6 6 6 11 1 17 -2 13 -5z m340 -16
c-3 -8 -6 -5 -6 6 -1 11 2 17 5 13 3 -3 4 -12 1 -19z m878 -10 c-7 -17 -45
-32 -45 -18 0 5 3 16 6 25 5 13 8 14 15 3 7 -10 9 -8 9 7 0 13 3 16 10 9 6 -6
8 -18 5 -26z m179 5 c-1 -25 -5 -29 -49 -36 -26 -4 -49 -7 -50 -5 -9 9 9 59
20 55 6 -3 18 -1 26 4 8 5 23 9 34 9 16 0 20 -6 19 -27z m-1944 7 c0 -5 -16
-10 -35 -10 -19 0 -35 5 -35 10 0 6 16 10 35 10 19 0 35 -4 35 -10z m70 0 c0
-5 -4 -10 -10 -10 -5 0 -10 5 -10 10 0 6 5 10 10 10 6 0 10 -4 10 -10z m50 0
c0 -5 -4 -10 -10 -10 -5 0 -10 5 -10 10 0 6 5 10 10 10 6 0 10 -4 10 -10z
m394 1 c3 -5 -1 -11 -9 -14 -9 -4 -12 -1 -8 9 6 16 10 17 17 5z m166 -21 c-29
-23 -43 -25 -38 -7 3 6 14 13 26 15 12 2 22 8 22 14 0 6 3 8 7 4 4 -4 -3 -16
-17 -26z m470 21 c0 -6 -4 -13 -10 -16 -5 -3 -10 1 -10 9 0 9 5 16 10 16 6 0
10 -4 10 -9z m470 -141 c-6 -34 -7 -20 -7 55 0 85 1 92 7 45 4 -31 4 -76 0
-100z m-695 111 c-3 -6 -11 -8 -17 -5 -6 4 -5 9 3 15 16 10 23 4 14 -10z m55
2 c0 -10 -10 -29 -21 -43 -17 -20 -19 -21 -14 -5 4 11 10 30 12 43 6 26 23 30
23 5z m87 -5 c-3 -8 -6 -5 -6 6 -1 11 2 17 5 13 3 -3 4 -12 1 -19z m753 3 c0
-18 -33 -35 -44 -23 -6 6 24 40 37 41 4 1 7 -7 7 -18z m825 6 c-10 -24 -64
-39 -111 -32 -25 3 -44 9 -41 11 7 7 49 15 88 15 20 1 43 5 50 10 18 11 19 11
14 -4z m145 -16 c-6 -12 -19 -21 -29 -21 -10 0 -33 -3 -50 -6 -18 -4 -31 -2
-31 4 0 11 46 26 71 23 9 -1 22 5 29 14 17 21 24 12 10 -14z m-2095 -1 c-10
-11 -23 -20 -29 -20 -6 0 0 9 14 20 32 25 38 25 15 0z m2298 13 c-7 -2 -13
-11 -13 -19 0 -8 -10 -14 -22 -14 -20 0 -21 1 -3 20 10 11 25 20 34 19 10 0
12 -2 4 -6z m-2598 -13 c-3 -5 -10 -10 -16 -10 -5 0 -9 5 -9 10 0 6 7 10 16
10 8 0 12 -4 9 -10z m215 -6 c0 -11 -5 -14 -16 -10 -9 3 -20 6 -25 6 -21 0 -7
16 16 18 17 1 25 -3 25 -14z m537 -16 c-3 -7 -5 -2 -5 12 0 14 2 19 5 13 2 -7
2 -19 0 -25z m-1287 6 c0 -2 -11 -4 -25 -4 -14 0 -25 4 -25 9 0 4 11 6 25 3
14 -2 25 -6 25 -8z m196 4 c7 -12 -48 -10 -66 2 -11 8 -5 10 23 8 21 -1 41 -6
43 -10z m2034 2 c0 -5 -7 -10 -15 -10 -8 0 -15 5 -15 10 0 6 7 10 15 10 8 0
15 -4 15 -10z m76 -7 c-2 -9 -9 -19 -16 -21 -7 -3 -10 0 -6 7 4 6 1 11 -6 11
-9 0 -9 3 2 10 22 14 29 12 26 -7z m74 7 c0 -13 -30 -13 -50 0 -11 7 -7 10 18
10 17 0 32 -4 32 -10z m187 4 c-3 -3 -12 -4 -19 -1 -8 3 -5 6 6 6 11 1 17 -2
13 -5z m-2130 -10 c-3 -3 -12 -4 -19 -1 -8 3 -5 6 6 6 11 1 17 -2 13 -5z
m2056 -1 c-7 -2 -19 -2 -25 0 -7 3 -2 5 12 5 14 0 19 -2 13 -5z m-2671 -31
c-19 -6 -44 6 -37 18 4 7 14 6 28 -2 14 -7 17 -13 9 -16z m233 18 c13 -5 14
-9 5 -9 -8 0 -24 4 -35 9 -13 5 -14 9 -5 9 8 0 24 -4 35 -9z m612 4 c-3 -3
-12 -4 -19 -1 -8 3 -5 6 6 6 11 1 17 -2 13 -5z m487 -102 c-2 -133 -6 -150
-13 -52 -4 52 -10 74 -18 73 -7 -2 -13 -1 -13 2 0 12 33 85 39 85 3 0 5 -48 5
-108z m53 76 c-3 -7 -5 -2 -5 12 0 14 2 19 5 13 2 -7 2 -19 0 -25z m324 -158
c-9 -68 -9 -62 -6 55 3 72 5 132 7 135 7 17 7 -128 -1 -190z m176 168 c-3 -8
-6 -5 -6 6 -1 11 2 17 5 13 3 -3 4 -12 1 -19z m383 12 c0 -5 12 -10 26 -10 23
0 25 -2 14 -15 -7 -9 -15 -13 -18 -11 -3 3 -17 -3 -32 -14 -29 -20 -42 -18
-33 6 4 10 -4 14 -31 14 -42 0 -50 20 -8 21 15 0 36 4 47 9 27 12 35 12 35 0z
m1060 -5 c-7 -8 -20 -15 -29 -15 -13 1 -13 3 3 15 26 19 42 19 26 0z m-1873
-42 c-3 -10 -5 -4 -5 12 0 17 2 24 5 18 2 -7 2 -21 0 -30z m350 5 c-3 -7 -5
-2 -5 12 0 14 2 19 5 13 2 -7 2 -19 0 -25z m1150 7 c-4 -8 -16 -15 -27 -15
-11 0 -20 -4 -20 -9 0 -10 -87 -27 -96 -19 -8 9 134 70 145 62 2 -2 1 -10 -2
-19z m123 21 c0 -2 -15 -9 -32 -15 -30 -10 -31 -9 -14 4 18 14 46 20 46 11z
m169 -10 c-2 -2 -17 -6 -34 -9 l-30 -6 30 13 c26 12 47 13 34 2z m-2493 -21
c-21 -16 -32 -13 -21 4 3 6 14 11 23 11 15 -1 15 -2 -2 -15z m1320 0 c-16 -17
-36 -20 -36 -6 0 10 17 19 38 20 10 1 10 -3 -2 -14z m-1666 -10 c0 -9 -6 -12
-16 -8 -13 5 -13 7 -2 14 17 11 18 11 18 -6z m290 0 c-9 -10 -17 -12 -30 -5
-9 5 -20 7 -23 4 -3 -3 -8 -1 -12 5 -4 7 9 11 36 11 35 0 40 -2 29 -15z m687
-67 c-2 -18 -4 -6 -4 27 0 33 2 48 4 33 2 -15 2 -42 0 -60z m1366 61 c-13 -12
-123 -21 -123 -10 0 6 17 13 38 16 20 4 44 7 52 9 22 3 43 -5 33 -15z m57 17
c0 -2 -7 -7 -16 -10 -8 -3 -12 -2 -9 4 6 10 25 14 25 6z m-1932 -21 c-11 -11
-68 -23 -68 -15 0 5 15 13 33 18 31 9 46 7 35 -3z m305 -10 c-3 -9 -8 -14 -10
-11 -3 3 -2 9 2 15 9 16 15 13 8 -4z m418 -156 c-8 -19 -9 -12 -6 31 2 30 5
75 7 100 1 28 3 16 5 -31 2 -41 -1 -86 -6 -100z m599 156 c0 -2 -10 -9 -22
-15 -22 -11 -22 -10 -4 4 21 17 26 19 26 11z m410 1 c0 -3 -4 -8 -10 -11 -5
-3 -10 -1 -10 4 0 6 5 11 10 11 6 0 10 -2 10 -4z m-1153 -28 c-3 -8 -6 -5 -6
6 -1 11 2 17 5 13 3 -3 4 -12 1 -19z m1090 16 c-3 -3 -12 -4 -19 -1 -8 3 -5 6
6 6 11 1 17 -2 13 -5z m-467 -14 c-20 -13 -43 -13 -35 0 3 6 16 10 28 10 18 0
19 -2 7 -10z m410 0 c-20 -13 -33 -13 -25 0 3 6 14 10 23 10 15 0 15 -2 2 -10z
m-1454 -16 c-3 -9 -6 -20 -6 -25 0 -5 -7 -9 -15 -9 -18 0 -18 5 -5 31 13 23
35 26 26 3z m-356 -3 c0 -5 -9 -7 -20 -4 -11 3 -20 7 -20 9 0 2 9 4 20 4 11 0
20 -4 20 -9z m536 -37 l-13 -39 -4 37 c-3 20 -2 35 2 32 4 -2 11 1 14 7 14 22
15 1 1 -37z m594 21 c0 -14 -2 -25 -4 -25 -2 0 -6 11 -8 25 -3 14 -1 25 3 25
5 0 9 -11 9 -25z m1107 19 c-3 -3 -12 -4 -19 -1 -8 3 -5 6 6 6 11 1 17 -2 13
-5z m-631 -19 c-16 -17 -46 -20 -46 -6 0 9 20 17 48 20 10 1 10 -3 -2 -14z
m-1189 -17 c-3 -8 -6 -5 -6 6 -1 11 2 17 5 13 3 -3 4 -12 1 -19z m1023 13 c0
-5 -7 -11 -15 -15 -9 -3 -15 0 -15 9 0 8 7 15 15 15 8 0 15 -4 15 -9z m-879
-34 c-10 -9 -11 -8 -5 6 3 10 9 15 12 12 3 -3 0 -11 -7 -18z m954 13 c-11 -5
-27 -9 -35 -9 -9 0 -8 4 5 9 11 5 27 9 35 9 9 0 8 -4 -5 -9z m-80 -10 c-3 -5
-12 -10 -18 -10 -7 0 -6 4 3 10 19 12 23 12 15 0z m-655 -31 c0 -16 -4 -28 -9
-25 -8 5 -3 56 5 56 2 0 4 -14 4 -31z m377 -16 c-3 -10 -5 -2 -5 17 0 19 2 27
5 18 2 -10 2 -26 0 -35z m-450 5 c-3 -7 -5 -2 -5 12 0 14 2 19 5 13 2 -7 2
-19 0 -25z m410 -30 c-2 -13 -4 -3 -4 22 0 25 2 35 4 23 2 -13 2 -33 0 -45z
m140 -10 c-2 -13 -4 -3 -4 22 0 25 2 35 4 23 2 -13 2 -33 0 -45z m163 15 c0
-7 -3 -13 -7 -14 -5 0 -16 -2 -25 -4 -20 -4 -32 10 -23 25 9 14 55 8 55 -7z
m-762 -68 c2 -65 0 -74 -13 -69 -9 4 -14 13 -11 21 3 8 6 39 6 69 0 82 15 65
18 -21z m1442 65 c0 -5 -2 -10 -4 -10 -3 0 -8 5 -11 10 -3 6 -1 10 4 10 6 0
11 -4 11 -10z m-1393 -72 c-2 -13 -4 -3 -4 22 0 25 2 35 4 23 2 -13 2 -33 0
-45z m-273 37 c-4 -8 -8 -15 -10 -15 -2 0 -4 7 -4 15 0 8 4 15 10 15 5 0 7 -7
4 -15z m353 -56 c1 -32 -2 -59 -8 -59 -5 0 -9 30 -9 67 0 81 14 75 17 -8z
m136 26 c-7 -21 -13 -19 -13 6 0 11 4 18 10 14 5 -3 7 -12 3 -20z m330 -42 c5
-23 3 -33 -6 -33 -9 0 -12 11 -9 36 5 41 7 40 15 -3z m-513 -10 c-11 -17 -11
-17 -6 0 3 10 6 24 7 30 0 9 2 9 5 0 3 -7 0 -20 -6 -30z m390 17 c0 -5 -4 -10
-10 -10 -5 0 -10 5 -10 10 0 6 5 10 10 10 6 0 10 -4 10 -10z m27 -12 c-3 -8
-6 -5 -6 6 -1 11 2 17 5 13 3 -3 4 -12 1 -19z m1792 -33 c0 -5 -6 1 -14 15 -8
14 -14 30 -14 35 0 6 6 -1 14 -15 8 -14 14 -29 14 -35z m-2029 10 c0 -8 -4
-15 -10 -15 -5 0 -7 7 -4 15 4 8 8 15 10 15 2 0 4 -7 4 -15z m201 -28 c-8 -8
-11 -3 -11 19 1 25 2 27 11 11 8 -14 8 -22 0 -30z m49 29 c0 -3 -4 -8 -10 -11
-5 -3 -10 -1 -10 4 0 6 5 11 10 11 6 0 10 -2 10 -4z m-316 -22 c19 -7 22 -34
4 -34 -7 0 -24 9 -38 20 -24 19 -24 20 -3 20 12 0 28 -3 37 -6z m66 -34 c-6
-12 -16 -17 -26 -13 -12 4 -11 8 8 18 13 7 24 13 26 14 1 1 -2 -8 -8 -19z
m-70 -46 c0 -2 -13 -4 -30 -4 -16 0 -30 4 -30 8 0 5 14 7 30 4 17 -2 30 -6 30
-8z m-47 -62 c-9 -35 -19 -25 -15 14 3 26 7 33 13 22 4 -8 5 -24 2 -36z m42
38 c-3 -5 -12 -10 -18 -10 -7 0 -6 4 3 10 19 12 23 12 15 0z m35 -5 c-7 -8
-17 -15 -23 -15 -6 0 -2 7 9 15 25 19 30 19 14 0z m227 -67 c-3 -8 -6 -5 -6 6
-1 11 2 17 5 13 3 -3 4 -12 1 -19z m-292 -8 c3 -5 -1 -10 -10 -10 -9 0 -13 5
-10 10 3 6 8 10 10 10 2 0 7 -4 10 -10z m295 -20 c0 -5 -7 -10 -15 -10 -8 0
-15 5 -15 10 0 6 7 10 15 10 8 0 15 -4 15 -10z"/>
<path d="M3500 6509 c0 -4 11 -9 25 -11 17 -4 25 -1 25 8 0 9 -10 13 -25 12
-14 -1 -25 -5 -25 -9z"/>
<path d="M3590 6506 c0 -2 9 -6 20 -9 11 -3 20 -1 20 4 0 5 -9 9 -20 9 -11 0
-20 -2 -20 -4z"/>
<path d="M3760 6500 c0 -5 7 -7 15 -4 8 4 15 8 15 10 0 2 -7 4 -15 4 -8 0 -15
-4 -15 -10z"/>
<path d="M3845 6500 c-3 -5 -1 -10 4 -10 6 0 11 5 11 10 0 6 -2 10 -4 10 -3 0
-8 -4 -11 -10z"/>
<path d="M3808 6493 c7 -3 16 -2 19 1 4 3 -2 6 -13 5 -11 0 -14 -3 -6 -6z"/>
<path d="M2094 6499 c-7 -12 7 -59 17 -59 13 0 11 14 -3 28 -9 9 -7 13 5 18 9
3 17 9 17 13 0 10 -30 10 -36 0z"/>
<path d="M2147 6503 c-14 -13 -6 -20 18 -15 14 2 25 8 25 13 0 10 -34 12 -43
2z"/>
<path d="M3225 6500 c-3 -5 -1 -10 4 -10 6 0 11 5 11 10 0 6 -2 10 -4 10 -3 0
-8 -4 -11 -10z"/>
<path d="M3098 6493 c17 -2 47 -2 65 0 17 2 3 4 -33 4 -36 0 -50 -2 -32 -4z"/>
<path d="M2132 6440 c0 -14 2 -19 5 -12 2 6 2 18 0 25 -3 6 -5 1 -5 -13z"/>
<path d="M3118 6433 c7 -3 16 -2 19 1 4 3 -2 6 -13 5 -11 0 -14 -3 -6 -6z"/>
<path d="M2600 6422 c0 -5 7 -9 15 -9 8 0 15 4 15 9 0 4 -7 8 -15 8 -8 0 -15
-4 -15 -8z"/>
<path d="M1961 6424 c0 -11 3 -14 6 -6 3 7 2 16 -1 19 -3 4 -6 -2 -5 -13z"/>
<path d="M5156 6472 c-3 -5 1 -9 9 -9 8 0 12 4 9 9 -3 4 -7 8 -9 8 -2 0 -6 -4
-9 -8z"/>
<path d="M5192 6456 c1 -10 8 -17 13 -17 15 1 12 24 -3 29 -9 3 -13 -2 -10
-12z"/>
<path d="M4963 6353 c9 -2 25 -2 35 0 9 3 1 5 -18 5 -19 0 -27 -2 -17 -5z"/>
<path d="M5048 6343 c6 -2 18 -2 25 0 6 3 1 5 -13 5 -14 0 -19 -2 -12 -5z"/>
<path d="M6470 6300 c0 -11 4 -20 8 -20 4 0 8 9 8 20 0 11 -4 20 -8 20 -4 0
-8 -9 -8 -20z"/>
<path d="M6510 6306 c0 -9 -1 -19 -2 -23 -2 -3 20 -8 49 -10 47 -2 51 -1 46
17 -3 12 -14 20 -27 20 -11 0 -31 3 -43 6 -17 5 -23 2 -23 -10z"/>
<path d="M6620 6275 c0 -15 42 -23 163 -32 63 -4 87 -3 87 6 0 6 -8 12 -17 12
-10 1 -36 3 -58 5 -22 2 -55 5 -72 6 -18 2 -33 6 -33 10 0 4 -16 7 -35 6 -20
-1 -35 -6 -35 -13z"/>
<path d="M5720 6260 c8 -5 22 -10 30 -10 13 0 13 1 0 10 -8 5 -22 10 -30 10
-13 0 -13 -1 0 -10z"/>
<path d="M5786 6245 c3 -7 12 -12 19 -11 17 3 32 16 19 17 -5 0 -17 2 -26 4
-10 2 -15 -2 -12 -10z"/>
<path d="M5888 6233 c7 -3 16 -2 19 1 4 3 -2 6 -13 5 -11 0 -14 -3 -6 -6z"/>
<path d="M6876 6155 c8 -37 14 -45 14 -19 0 10 -5 26 -10 34 -8 11 -9 7 -4
-15z"/>
<path d="M6841 6137 c-9 -12 -7 -16 9 -20 21 -5 25 0 11 21 -6 10 -10 10 -20
-1z"/>
<path d="M3247 6190 c3 -11 7 -20 9 -20 2 0 4 9 4 20 0 11 -4 20 -9 20 -5 0
-7 -9 -4 -20z"/>
<path d="M2750 5371 c0 -17 5 -31 10 -31 6 0 10 11 10 24 0 14 -4 28 -10 31
-6 4 -10 -7 -10 -24z"/>
<path d="M3390 5195 c0 -5 5 -17 10 -25 5 -8 10 -10 10 -5 0 6 -5 17 -10 25
-5 8 -10 11 -10 5z"/>
<path d="M3726 5096 c3 -9 13 -16 21 -16 8 0 11 -4 8 -10 -3 -5 3 -10 14 -10
10 0 27 -3 36 -7 15 -5 16 -3 6 14 -6 11 -21 23 -33 25 -13 3 -31 9 -41 13
-13 6 -16 4 -11 -9z"/>
<path d="M2641 4454 c0 -11 3 -14 6 -6 3 7 2 16 -1 19 -3 4 -6 -2 -5 -13z"/>
<path d="M4013 4293 c9 -2 23 -2 30 0 6 3 -1 5 -18 5 -16 0 -22 -2 -12 -5z"/>
<path d="M4148 4183 c6 -2 18 -2 25 0 6 3 1 5 -13 5 -14 0 -19 -2 -12 -5z"/>
<path d="M3698 4163 c7 -3 16 -2 19 1 4 3 -2 6 -13 5 -11 0 -14 -3 -6 -6z"/>
<path d="M3530 4150 c0 -5 9 -10 20 -10 11 0 20 5 20 10 0 6 -9 10 -20 10 -11
0 -20 -4 -20 -10z"/>
<path d="M3208 4003 c7 -3 16 -2 19 1 4 3 -2 6 -13 5 -11 0 -14 -3 -6 -6z"/>
<path d="M3678 3973 c7 -3 16 -2 19 1 4 3 -2 6 -13 5 -11 0 -14 -3 -6 -6z"/>
<path d="M4747 5407 c-3 -7 3 -13 13 -13 10 0 16 6 13 13 -3 7 -9 13 -13 13
-4 0 -10 -6 -13 -13z"/>
<path d="M3982 5710 c0 -14 4 -36 8 -50 8 -24 8 -24 8 5 0 17 -3 39 -8 50 -8
18 -9 18 -8 -5z"/>
<path d="M4368 5608 c-4 -38 -2 -78 5 -78 4 0 7 20 7 45 0 41 -8 63 -12 33z"/>
<path d="M4361 5504 c0 -11 3 -14 6 -6 3 7 2 16 -1 19 -3 4 -6 -2 -5 -13z"/>
<path d="M1870 5381 c0 -11 5 -23 10 -26 6 -3 10 3 10 14 0 11 -4 23 -10 26
-5 3 -10 -3 -10 -14z"/>
<path d="M1885 4270 c3 -5 8 -10 11 -10 2 0 4 5 4 10 0 6 -5 10 -11 10 -5 0
-7 -4 -4 -10z"/>
<path d="M2346 4272 c-2 -4 -1 -14 5 -22 7 -12 9 -10 9 8 0 23 -5 28 -14 14z"/>
<path d="M2361 4184 c0 -11 3 -14 6 -6 3 7 2 16 -1 19 -3 4 -6 -2 -5 -13z"/>
<path d="M2400 3785 c0 -14 4 -25 9 -25 4 0 6 11 3 25 -2 14 -6 25 -8 25 -2 0
-4 -11 -4 -25z"/>
<path d="M4759 5192 c-3 -20 -2 -29 4 -23 5 5 7 19 5 32 -3 20 -5 19 -9 -9z"/>
<path d="M3991 4984 c0 -11 3 -14 6 -6 3 7 2 16 -1 19 -3 4 -6 -2 -5 -13z"/>
<path d="M4316 4835 c4 -8 8 -15 10 -15 2 0 4 7 4 15 0 8 -4 15 -10 15 -5 0
-7 -7 -4 -15z"/>
<path d="M4330 3861 c0 -10 19 -25 25 -20 1 2 -3 10 -11 17 -8 7 -14 8 -14 3z"/>
<path d="M4370 3758 c0 -20 18 -62 21 -48 0 3 2 14 4 24 2 10 -3 25 -11 33
-12 13 -14 11 -14 -9z"/>
<path d="M4340 3340 c0 -5 5 -10 10 -10 6 0 10 5 10 10 0 6 -4 10 -10 10 -5 0
-10 -4 -10 -10z"/>
<path d="M4287 2513 c-3 -16 -2 -32 2 -36 4 -4 8 8 9 28 2 42 -4 46 -11 8z"/>
<path d="M7642 6830 c0 -19 2 -27 5 -17 2 9 2 25 0 35 -3 9 -5 1 -5 -18z"/>
<path d="M3620 6811 c0 -6 4 -13 10 -16 6 -3 7 1 4 9 -7 18 -14 21 -14 7z"/>
<path d="M1857 6773 c-4 -3 -7 -11 -7 -17 0 -6 5 -5 12 2 6 6 9 14 7 17 -3 3
-9 2 -12 -2z"/>
<path d="M6687 6652 c-19 -21 -34 -82 -20 -82 5 0 14 5 21 12 8 8 15 8 25 0 8
-7 16 -9 20 -6 6 6 -6 53 -20 79 -8 14 -11 14 -26 -3z"/>
<path d="M6595 6580 c4 -6 11 -8 16 -5 14 9 11 15 -7 15 -8 0 -12 -5 -9 -10z"/>
<path d="M4600 6545 c-7 -9 -11 -18 -8 -20 3 -3 11 1 18 10 7 9 11 18 8 20 -3
3 -11 -1 -18 -10z"/>
<path d="M6995 6486 c19 -19 23 -31 18 -59 -5 -33 -4 -35 28 -39 33 -5 33 -5
11 10 -25 17 -31 47 -6 38 11 -4 14 -1 12 12 -2 9 -10 17 -18 17 -8 0 -23 10
-33 23 -10 12 -22 22 -27 22 -5 0 2 -11 15 -24z"/>
<path d="M6921 6491 c-8 -5 -21 -7 -30 -4 -9 3 -5 -2 7 -12 16 -12 27 -14 34
-7 15 15 6 33 -11 23z"/>
<path d="M957 6403 c-22 -49 -49 -112 -61 -141 -13 -28 -30 -60 -38 -70 -8 -9
-18 -24 -22 -32 -5 -9 -2 -8 7 3 23 27 27 20 11 -19 -8 -20 -13 -38 -11 -40 5
-5 64 123 72 159 4 15 11 27 16 27 5 0 9 7 9 15 0 8 14 49 30 91 43 107 33
112 -13 7z"/>
<path d="M6560 6481 c0 -6 5 -13 12 -17 6 -4 8 -3 4 4 -3 5 0 13 6 15 8 3 6 6
-4 6 -10 1 -18 -3 -18 -8z"/>
<path d="M6527 6463 c-10 -9 -9 -23 2 -23 5 0 11 7 15 15 5 15 -5 20 -17 8z"/>
<path d="M7071 6454 c0 -11 3 -14 6 -6 3 7 2 16 -1 19 -3 4 -6 -2 -5 -13z"/>
<path d="M6975 6430 c3 -5 8 -10 11 -10 2 0 4 5 4 10 0 6 -5 10 -11 10 -5 0
-7 -4 -4 -10z"/>
<path d="M7095 6430 c3 -5 8 -10 11 -10 2 0 4 5 4 10 0 6 -5 10 -11 10 -5 0
-7 -4 -4 -10z"/>
<path d="M6653 6415 c-9 -10 -10 -16 -2 -21 6 -3 18 2 27 11 10 10 12 15 5 11
-6 -3 -13 -2 -15 3 -1 5 -9 3 -15 -4z"/>
<path d="M6915 6419 c-4 -6 -5 -12 -2 -15 2 -3 7 2 10 11 7 17 1 20 -8 4z"/>
<path d="M6976 6385 c4 -8 8 -15 10 -15 2 0 4 7 4 15 0 8 -4 15 -10 15 -5 0
-7 -7 -4 -15z"/>
<path d="M7010 6370 c0 -6 7 -10 15 -10 8 0 15 2 15 4 0 2 -7 6 -15 10 -8 3
-15 1 -15 -4z"/>
<path d="M7207 6345 c4 -11 8 -48 8 -82 0 -48 3 -59 13 -51 9 8 11 7 6 -6 -3
-9 -1 -16 5 -16 21 0 1 111 -27 155 l-14 20 9 -20z"/>
<path d="M7800 6181 c0 -5 5 -13 10 -16 6 -3 10 -2 10 4 0 5 -4 13 -10 16 -5
3 -10 2 -10 -4z"/>
<path d="M801 6089 c-14 -40 -14 -60 0 -36 11 19 22 67 15 67 -2 0 -9 -14 -15
-31z"/>
<path d="M825 6070 c-3 -5 -1 -10 4 -10 6 0 11 5 11 10 0 6 -2 10 -4 10 -3 0
-8 -4 -11 -10z"/>
<path d="M781 5979 c-21 -43 -38 -68 -46 -65 -8 3 -20 -13 -31 -42 -9 -26 -20
-49 -24 -52 -9 -6 -60 -134 -60 -150 0 -6 -6 -18 -14 -25 -8 -8 -22 -40 -31
-72 -10 -32 -23 -67 -29 -78 -20 -33 -41 -113 -106 -405 -22 -95 -56 -311 -65
-405 -22 -220 -38 -464 -36 -535 3 -91 22 -146 47 -136 8 3 13 2 10 -3 -8 -12
14 -28 49 -37 17 -4 39 -16 49 -27 20 -20 112 -67 134 -67 6 0 12 -4 12 -9 0
-5 16 -15 34 -22 19 -7 33 -16 30 -20 -2 -4 11 -19 28 -34 96 -77 126 -104
164 -140 23 -22 60 -53 83 -70 22 -16 43 -37 46 -46 3 -9 21 -27 40 -40 19
-13 35 -27 35 -31 0 -5 4 -8 10 -8 5 0 29 -14 52 -30 24 -17 68 -47 98 -68 30
-20 57 -40 60 -44 3 -4 24 -14 47 -22 52 -18 113 -58 113 -73 0 -7 16 -20 35
-29 19 -9 35 -20 35 -25 0 -5 9 -9 20 -9 11 0 39 -9 62 -19 174 -78 277 -121
287 -121 6 0 11 -4 11 -9 0 -14 129 -57 200 -66 36 -5 110 -28 110 -35 0 -6
104 -29 200 -44 25 -4 31 -3 20 4 -8 5 -25 10 -37 10 -21 0 -73 19 -83 30 -3
3 -34 14 -70 24 -36 10 -80 24 -99 32 -18 8 -42 12 -52 9 -13 -4 -19 -2 -19 9
0 9 -5 16 -11 16 -5 0 -7 -4 -4 -10 4 -6 -1 -7 -11 -3 -11 4 -13 8 -6 11 19 6
14 22 -8 22 -18 0 -25 -10 -21 -32 2 -12 -17 -10 -24 2 -3 6 -1 10 4 10 6 0
11 5 11 10 0 15 -47 60 -62 60 -7 0 -1 -8 15 -18 44 -27 31 -32 -38 -12 -74
21 -87 28 -80 40 3 5 1 11 -5 15 -5 3 -10 1 -10 -4 0 -8 -6 -8 -17 -1 -10 5
-43 16 -72 25 -74 21 -189 91 -193 118 -2 13 -11 21 -24 22 -12 1 -34 11 -49
23 -15 12 -33 22 -39 22 -6 0 -4 -4 4 -10 8 -5 11 -12 8 -16 -4 -3 -20 7 -35
24 -15 17 -64 49 -108 72 -87 45 -139 78 -170 108 -11 11 -30 22 -42 26 -13 4
-23 14 -23 23 0 18 -47 66 -100 102 -35 24 -56 47 -60 66 -3 16 -32 45 -40 40
-11 -7 -56 32 -48 40 13 13 114 -35 149 -71 34 -36 66 -46 55 -18 -6 16 -6 16
52 -1 12 -3 22 -3 22 2 -1 11 -102 82 -147 103 -21 9 -56 33 -78 53 -22 20
-65 46 -95 57 -70 26 -100 41 -100 51 0 5 -17 11 -37 14 -21 4 -47 10 -58 15
-11 5 -40 11 -65 15 -25 3 -54 12 -65 19 -11 7 -28 12 -37 10 -9 -1 -22 4 -29
12 -6 8 -17 14 -24 14 -6 0 -16 10 -21 23 -12 27 -10 192 4 312 6 50 22 191
36 314 29 249 47 364 71 461 34 138 78 287 101 337 8 17 14 38 14 46 0 9 5 19
10 22 6 3 10 13 10 22 0 9 10 37 21 62 12 25 25 55 29 66 15 39 64 140 70 145
9 7 57 96 80 147 31 71 8 48 -29 -28z m-190 -2046 c40 -18 72 -43 55 -43 -17
0 -116 52 -116 61 0 6 3 9 8 7 4 -2 28 -13 53 -25z m77 11 c14 -15 14 -16 -3
-13 -10 2 -20 10 -23 17 -5 17 6 15 26 -4z m147 -115 c-3 -4 2 -10 11 -13 9
-4 14 -9 11 -12 -7 -8 -41 11 -72 40 -36 33 -31 38 15 14 21 -12 37 -25 35
-29z m595 -521 c0 -13 -13 -9 -40 12 l-25 20 33 -12 c17 -7 32 -16 32 -20z
m106 -66 c-4 -3 -14 2 -24 12 -16 18 -16 18 6 6 13 -6 21 -14 18 -18z m31 -21
c0 -11 -5 -17 -9 -15 -11 7 -10 34 1 34 6 0 9 -9 8 -19z"/>
<path d="M755 5988 c-10 -24 -20 -46 -23 -50 -2 -5 0 -8 5 -8 9 0 46 90 40 97
-2 2 -12 -16 -22 -39z"/>
<path d="M6526 5635 c-3 -9 -6 -30 -6 -46 0 -16 -11 -61 -24 -99 -53 -150 -78
-271 -82 -396 -2 -66 -13 -183 -23 -260 -11 -76 -19 -146 -18 -154 1 -17 -11
-233 -17 -292 -5 -43 10 -52 20 -13 3 14 10 25 15 25 5 0 9 37 9 83 0 86 12
217 31 327 23 145 40 237 51 284 7 34 7 50 0 55 -19 12 33 232 104 444 5 13 2
16 -9 11 -11 -4 -16 1 -19 17 -4 27 -23 36 -32 14z"/>
<path d="M6780 5340 c5 -18 12 -35 16 -39 10 -9 -6 53 -17 63 -5 6 -5 -4 1
-24z"/>
<path d="M250 5130 c0 -5 7 -7 15 -4 8 4 15 8 15 10 0 2 -7 4 -15 4 -8 0 -15
-4 -15 -10z"/>
<path d="M5045 5050 c-3 -5 1 -10 10 -10 9 0 13 5 10 10 -3 6 -8 10 -10 10 -2
0 -7 -4 -10 -10z"/>
<path d="M1420 4650 c0 -5 7 -10 15 -10 8 0 15 5 15 10 0 6 -7 10 -15 10 -8 0
-15 -4 -15 -10z"/>
<path d="M5980 4650 c0 -5 5 -10 10 -10 6 0 10 5 10 10 0 6 -4 10 -10 10 -5 0
-10 -4 -10 -10z"/>
<path d="M1610 4490 c-9 -6 -10 -10 -3 -10 6 0 15 5 18 10 8 12 4 12 -15 0z"/>
<path d="M1495 4480 c3 -5 13 -10 21 -10 8 0 17 -7 20 -15 4 -8 27 -29 53 -45
26 -17 56 -43 66 -57 11 -15 28 -35 38 -45 9 -10 17 -22 17 -26 0 -5 6 -17 14
-27 13 -19 14 -18 13 10 -1 17 -11 41 -22 54 -42 49 -64 71 -73 71 -4 0 -26
16 -47 36 -50 46 -117 82 -100 54z"/>
<path d="M1609 4453 c5 -10 40 -47 76 -82 61 -59 145 -170 145 -192 0 -5 5 -9
10 -9 6 0 10 -5 10 -11 0 -11 25 -42 68 -82 48 -46 62 -57 62 -47 0 5 -9 15
-20 22 -11 7 -20 16 -20 21 0 4 -10 18 -21 30 -12 12 -34 41 -49 64 -15 23
-30 40 -34 36 -6 -6 -10 12 -7 30 1 5 -3 6 -8 2 -6 -3 -17 10 -25 30 -8 19
-19 35 -23 35 -4 0 -19 16 -32 36 -14 20 -40 51 -58 69 -18 18 -33 40 -33 49
0 10 -9 16 -25 16 -22 0 -24 -3 -16 -17z"/>
<path d="M8411 4284 c0 -11 3 -14 6 -6 3 7 2 16 -1 19 -3 4 -6 -2 -5 -13z"/>
<path d="M7630 4274 c0 -17 22 -14 28 4 2 7 -3 12 -12 12 -9 0 -16 -7 -16 -16z"/>
<path d="M6343 4205 c-6 -7 -16 -39 -22 -71 -12 -68 -20 -234 -12 -234 4 0 12
13 19 30 10 22 11 34 2 51 -8 15 -9 19 -1 15 6 -4 11 0 11 11 0 10 5 60 10
112 6 52 9 95 8 97 -2 1 -8 -4 -15 -11z"/>
<path d="M8426 4171 c-4 -5 -2 -20 3 -33 9 -21 10 -21 10 10 1 32 -3 39 -13
23z"/>
<path d="M8444 4106 c-3 -8 -4 -27 -2 -43 3 -23 5 -20 9 15 5 43 2 53 -7 28z"/>
<path d="M8451 4014 c0 -11 3 -14 6 -6 3 7 2 16 -1 19 -3 4 -6 -2 -5 -13z"/>
<path d="M6300 3835 c-4 -64 -23 -162 -34 -174 -9 -11 -16 -59 -21 -146 -10
-187 -12 -219 -25 -325 -16 -133 -22 -234 -10 -195 27 95 51 262 71 490 5 61
14 142 20 180 18 118 19 146 9 163 -5 9 -10 13 -10 7z"/>
<path d="M7243 3783 c9 -2 25 -2 35 0 9 3 1 5 -18 5 -19 0 -27 -2 -17 -5z"/>
<path d="M7134 3764 c-20 -16 -13 -16 31 2 8 3 15 1 15 -5 0 -6 -7 -11 -15
-11 -8 0 -15 -5 -15 -11 0 -10 13 -5 38 14 11 8 11 12 0 18 -19 13 -32 11 -54
-7z"/>
<path d="M7300 3770 c0 -5 -9 -10 -21 -10 -22 0 -151 -41 -159 -51 -3 -3 -24
-18 -47 -32 -23 -14 -44 -31 -48 -37 -17 -28 10 -18 92 32 82 50 139 74 189
80 19 3 20 5 8 16 -8 7 -14 8 -14 2z"/>
<path d="M6905 3692 c-27 -20 -56 -45 -63 -54 -7 -10 -20 -18 -29 -18 -8 0
-53 -37 -99 -82 -46 -46 -119 -117 -162 -158 -43 -41 -76 -79 -74 -84 3 -5 0
-6 -7 -1 -14 8 -81 -50 -81 -70 0 -6 -17 -21 -37 -33 -51 -30 -101 -72 -85
-72 32 0 162 85 162 106 0 8 5 14 10 14 6 0 19 9 30 20 11 11 27 20 36 20 12
0 14 3 6 13 -8 9 1 24 32 57 52 54 106 102 87 77 -8 -9 -11 -20 -8 -23 3 -3
14 7 24 22 19 30 61 74 69 74 3 0 3 -4 0 -9 -3 -5 2 -15 11 -22 14 -12 16 -12
8 0 -6 11 -4 13 8 8 11 -4 14 -2 10 8 -3 8 2 18 11 21 9 3 16 12 16 20 0 8 5
14 10 14 6 0 10 12 10 26 0 14 4 23 9 20 5 -3 11 3 14 14 4 14 14 20 34 20 37
0 46 9 31 27 -10 12 -8 14 8 11 14 -2 18 2 16 17 -2 11 -1 17 3 13 4 -4 16 -3
26 2 14 8 18 6 21 -13 3 -19 4 -19 10 -5 4 10 1 23 -7 32 -8 7 -11 16 -8 20
15 14 -5 2 -52 -32z"/>
<path d="M965 3690 c3 -5 8 -10 11 -10 2 0 4 5 4 10 0 6 -5 10 -11 10 -5 0 -7
-4 -4 -10z"/>
<path d="M6985 3660 c-3 -5 1 -10 9 -10 8 0 18 5 21 10 3 6 -1 10 -9 10 -8 0
-18 -4 -21 -10z"/>
<path d="M1000 3650 c0 -5 5 -10 11 -10 5 0 7 5 4 10 -3 6 -8 10 -11 10 -2 0
-4 -4 -4 -10z"/>
<path d="M6982 3622 c-24 -4 -37 -22 -30 -42 2 -7 16 0 33 14 32 28 32 34 -3
28z"/>
<path d="M6886 3605 c-11 -8 -15 -15 -9 -15 6 0 16 7 23 15 16 19 11 19 -14 0z"/>
<path d="M1093 3578 c20 -18 37 -38 37 -45 0 -6 9 -15 20 -18 11 -3 20 -10 20
-14 0 -3 14 -15 30 -24 45 -27 36 -5 -10 23 -22 14 -40 28 -40 33 0 11 -50 57
-75 69 -11 5 -3 -6 18 -24z"/>
<path d="M1137 3579 c7 -7 15 -10 18 -7 3 3 -2 9 -12 12 -14 6 -15 5 -6 -5z"/>
<path d="M4710 3580 c0 -5 5 -10 10 -10 6 0 10 5 10 10 0 6 -4 10 -10 10 -5 0
-10 -4 -10 -10z"/>
<path d="M6845 3570 c-3 -5 -2 -10 4 -10 5 0 13 5 16 10 3 6 2 10 -4 10 -5 0
-13 -4 -16 -10z"/>
<path d="M6906 3561 c-4 -5 3 -7 14 -4 23 6 26 13 6 13 -8 0 -17 -4 -20 -9z"/>
<path d="M1220 3511 c0 -9 30 -24 36 -18 2 1 -6 8 -16 15 -11 7 -20 8 -20 3z"/>
<path d="M6685 3459 c-4 -5 -8 -21 -9 -34 -3 -20 -1 -22 15 -12 10 6 18 21 17
34 -2 24 -13 30 -23 12z"/>
<path d="M1255 3446 c11 -7 22 -13 25 -12 3 0 19 -11 35 -26 16 -16 34 -28 39
-28 12 0 -27 38 -63 62 -14 10 -33 18 -41 18 -10 0 -9 -4 5 -14z"/>
<path d="M6635 3390 c-3 -6 1 -7 9 -4 18 7 21 14 7 14 -6 0 -13 -4 -16 -10z"/>
<path d="M6594 3376 c-6 -7 -29 -27 -50 -44 -23 -19 -32 -32 -23 -32 21 0 99
61 99 77 0 16 -12 16 -26 -1z"/>
<path d="M1458 3339 c23 -23 46 -39 50 -35 7 8 -66 75 -83 76 -5 0 9 -19 33
-41z"/>
<path d="M7983 3079 c-18 -12 -33 -23 -33 -25 0 -10 19 -2 50 21 41 30 28 33
-17 4z"/>
<path d="M1925 3080 c3 -5 11 -10 16 -10 6 0 7 5 4 10 -3 6 -11 10 -16 10 -6
0 -7 -4 -4 -10z"/>
<path d="M1545 2989 c-10 -15 3 -25 16 -12 7 7 7 13 1 17 -6 3 -14 1 -17 -5z"/>
<path d="M1460 2980 c0 -5 5 -10 11 -10 5 0 7 5 4 10 -3 6 -8 10 -11 10 -2 0
-4 -4 -4 -10z"/>
<path d="M4581 2876 c-8 -9 -11 -19 -7 -23 9 -9 29 13 24 27 -2 8 -8 7 -17 -4z"/>
<path d="M7660 2870 c-8 -5 -10 -10 -5 -10 6 0 17 5 25 10 8 5 11 10 5 10 -5
0 -17 -5 -25 -10z"/>
<path d="M5406 2801 c-4 -7 -5 -15 -2 -18 9 -9 19 4 14 18 -4 11 -6 11 -12 0z"/>
<path d="M7228 2653 c7 -3 16 -2 19 1 4 3 -2 6 -13 5 -11 0 -14 -3 -6 -6z"/>
<path d="M6433 2463 c9 -2 25 -2 35 0 9 3 1 5 -18 5 -19 0 -27 -2 -17 -5z"/>
<path d="M6325 2450 l-30 -8 32 -1 c17 0 35 4 38 9 7 11 3 11 -40 0z"/>
<path d="M6160 2430 c-24 -8 -24 -8 5 -8 17 0 44 4 60 8 l30 8 -35 0 c-19 0
-46 -4 -60 -8z"/>
<path d="M1880 1635 c0 -8 5 -15 10 -15 6 0 10 7 10 15 0 8 -4 15 -10 15 -5 0
-10 -7 -10 -15z"/>
<path d="M2172 1500 c-5 -22 -6 -38 -2 -35 10 6 24 64 17 71 -2 3 -9 -13 -15
-36z"/>
<path d="M2136 1405 c-3 -9 -6 -24 -5 -33 0 -9 5 -4 10 12 9 32 6 48 -5 21z"/>
<path d="M2096 1269 c-8 -42 0 -50 9 -9 4 17 5 34 2 36 -2 3 -7 -10 -11 -27z"/>
<path d="M5660 1290 c0 -5 5 -10 10 -10 6 0 10 5 10 10 0 6 -4 10 -10 10 -5 0
-10 -4 -10 -10z"/>
<path d="M4340 1204 c0 -8 5 -12 10 -9 6 3 10 10 10 16 0 5 -4 9 -10 9 -5 0
-10 -7 -10 -16z"/>
<path d="M5920 1149 c0 -5 5 -7 10 -4 6 3 10 8 10 11 0 2 -4 4 -10 4 -5 0 -10
-5 -10 -11z"/>
<path d="M4324 1114 c4 -10 10 -54 13 -96 3 -43 9 -75 14 -73 4 3 9 -3 12 -12
2 -10 2 20 -1 67 -3 47 -9 87 -13 88 -5 2 -9 10 -9 17 0 8 -5 17 -12 21 -8 5
-9 2 -4 -12z"/>
<path d="M1420 1000 c0 -5 5 -10 10 -10 6 0 10 5 10 10 0 6 -4 10 -10 10 -5 0
-10 -4 -10 -10z"/>
<path d="M3137 864 c-4 -4 -7 -14 -7 -23 0 -11 3 -12 11 -4 6 6 10 16 7 23 -2
6 -7 8 -11 4z"/>
<path d="M4371 794 c0 -11 3 -14 6 -6 3 7 2 16 -1 19 -3 4 -6 -2 -5 -13z"/>
<path d="M3370 731 c0 -5 5 -13 10 -16 6 -3 10 -2 10 4 0 5 -4 13 -10 16 -5 3
-10 2 -10 -4z"/>
<path d="M8140 470 c0 -5 5 -10 10 -10 6 0 10 5 10 10 0 6 -4 10 -10 10 -5 0
-10 -4 -10 -10z"/>
<path d="M3690 404 c0 -8 5 -12 10 -9 6 4 8 11 5 16 -9 14 -15 11 -15 -7z"/>
</g>
</svg>
